<svg xmlns="http://www.w3.org/2000/svg" xmlns:xlink="http://www.w3.org/1999/xlink" version="1.2" width="105.00mm" height="148.00mm" viewBox="0 0 47.4213 66.8414">
<style text="style/css">
<![CDATA[
tspan { white-space: pre; }
]]>
</style>
<!-- Page: 1/21 -->
<text transform="translate(2.2582, 0.9033)" font-family="serif" font-size="2.1999" text-anchor="start" fill="currentColor">
<tspan/>
</text>
<text transform="translate(9.5384, 4.5589)" font-family="serif" font-weight="bold" font-size="3.4926" text-anchor="start" fill="currentColor">
<tspan>Spem in alium</tspan>
</text>
<text transform="translate(16.6516, 8.0589)" font-family="serif" font-weight="bold" font-size="2.4694" text-anchor="start" fill="currentColor">
<tspan>Baritone I</tspan>
</text>
<g id="41" class="ly grob StaffSymbol" data-moment="0.00000000" data-measure="1" data-time="0">
<line transform="translate(2.2582, 14.6249)" stroke-linejoin="round" stroke-linecap="round" stroke-width="0.0864" stroke="currentColor" x1="0.0432" y1="-0.0000" x2="42.8617" y2="-0.0000"/>
<line transform="translate(2.2582, 13.6249)" stroke-linejoin="round" stroke-linecap="round" stroke-width="0.0864" stroke="currentColor" x1="0.0432" y1="-0.0000" x2="42.8617" y2="-0.0000"/>
<line transform="translate(2.2582, 12.6249)" stroke-linejoin="round" stroke-linecap="round" stroke-width="0.0864" stroke="currentColor" x1="0.0432" y1="-0.0000" x2="42.8617" y2="-0.0000"/>
<line transform="translate(2.2582, 11.6249)" stroke-linejoin="round" stroke-linecap="round" stroke-width="0.0864" stroke="currentColor" x1="0.0432" y1="-0.0000" x2="42.8617" y2="-0.0000"/>
<line transform="translate(2.2582, 10.6249)" stroke-linejoin="round" stroke-linecap="round" stroke-width="0.0864" stroke="currentColor" x1="0.0432" y1="-0.0000" x2="42.8617" y2="-0.0000"/>
</g>
<g id="75" class="ly grob BarLine" data-moment="2.00000000" data-measure="2" data-time="0.13333333">
<rect transform="translate(21.4645, 21.4402)" x="0.0000" y="-1.4142" width="0.1642" height="2.8284" ry="0.0000" fill="currentColor"/>
</g>
<g id="87" class="ly grob BarLine" data-moment="2.00000000" data-measure="2" data-time="0.13333333">
<rect transform="translate(21.4645, 12.6249)" x="0.0000" y="-2.0000" width="0.1642" height="4.0000" ry="0.0000" fill="currentColor"/>
</g>
<g id="159" class="ly grob BarLine" data-moment="4.00000000" data-measure="3" data-time="0.26666667">
<rect transform="translate(33.0708, 12.6249)" x="0.0000" y="-2.0000" width="0.1642" height="4.0000" ry="0.0000" fill="currentColor"/>
</g>
<g id="227" class="ly grob BarLine" data-moment="6.00000000" data-measure="4" data-time="0.40000000">
<rect transform="translate(44.9989, 12.6249)" x="0.0000" y="-2.0000" width="0.1642" height="4.0000" ry="0.0000" fill="currentColor"/>
</g>
<g id="215" class="ly grob BarLine" data-moment="6.00000000" data-measure="4" data-time="0.40000000">
<rect transform="translate(44.9989, 21.4402)" x="0.0000" y="-1.4142" width="0.1642" height="2.8284" ry="0.0000" fill="currentColor"/>
</g>
<g id="147" class="ly grob BarLine" data-moment="4.00000000" data-measure="3" data-time="0.26666667">
<rect transform="translate(33.0708, 21.4402)" x="0.0000" y="-1.4142" width="0.1642" height="2.8284" ry="0.0000" fill="currentColor"/>
</g>
<g id="42" class="ly grob LedgerLineSpanner" data-moment="0.00000000" data-measure="1" data-time="0">
<rect transform="translate(2.2582, 9.6249)" x="1.6735" y="-0.0932" width="1.9587" height="0.1864" ry="0.0932" fill="currentColor"/>
</g>
<g id="28" class="ly grob StaffSymbol" data-moment="0.00000000" data-measure="1" data-time="0">
<line transform="translate(2.2582, 22.8544)" stroke-linejoin="round" stroke-linecap="round" stroke-width="0.0611" stroke="currentColor" x1="0.0306" y1="-0.0000" x2="42.8744" y2="-0.0000"/>
<line transform="translate(2.2582, 22.1473)" stroke-linejoin="round" stroke-linecap="round" stroke-width="0.0611" stroke="currentColor" x1="0.0306" y1="-0.0000" x2="42.8744" y2="-0.0000"/>
<line transform="translate(2.2582, 21.4402)" stroke-linejoin="round" stroke-linecap="round" stroke-width="0.0611" stroke="currentColor" x1="0.0306" y1="-0.0000" x2="42.8744" y2="-0.0000"/>
<line transform="translate(2.2582, 20.7331)" stroke-linejoin="round" stroke-linecap="round" stroke-width="0.0611" stroke="currentColor" x1="0.0306" y1="-0.0000" x2="42.8744" y2="-0.0000"/>
<line transform="translate(2.2582, 20.0260)" stroke-linejoin="round" stroke-linecap="round" stroke-width="0.0611" stroke="currentColor" x1="0.0306" y1="-0.0000" x2="42.8744" y2="-0.0000"/>
</g>
<g id="29" class="ly grob LedgerLineSpanner" data-moment="0.00000000" data-measure="1" data-time="0">
</g>
<g id="167" class="ly grob Rest" data-moment="4.00000000" data-measure="3" data-time="0.26666667" data-time-end="0.40000000" data-duration="2">
<path transform="translate(33.9930, 12.6249) scale(0.0040, -0.0040)" d="M142 0h-134c-4 0 -8 4 -8 8v234c0 4 4 8 8 8h134c4 0 8 -4 8 -8v-234c0 -4 -4 -8 -8 -8z" fill="currentColor"/>
</g>
<g id="166" class="ly grob NoteHead" data-moment="4.00000000" data-measure="3" data-time="0.26666667" data-time-end="0.30000000" data-duration="0.50000000" data-pitch="9">
<path transform="translate(33.9930, 21.7937) scale(0.0028, -0.0028)" d="M312 64c0 24 -20 41 -41 41c-4 0 -8 -1 -12 -2c-30 -9 -77 -38 -113 -62s-83 -54 -103 -78c-7 -8 -10 -17 -10 -27c0 -24 20 -41 41 -41c4 0 8 1 12 2c30 9 77 38 113 62s83 54 103 78c7 8 10 17 10 27zM259 137c48 0 86 -22 86 -74c0 -18 -4 -38 -10 -56
c-12 -38 -30 -73 -63 -95c-53 -36 -113 -49 -186 -49c-48 0 -86 22 -86 74c0 18 4 38 10 56c12 38 31 73 64 95c53 36 112 49 185 49z" fill="currentColor"/>
</g>
<g id="165" class="ly grob NoteHead" data-moment="4.00000000" data-measure="3" data-time="0.26666667" data-time-end="0.30000000" data-duration="0.50000000" data-pitch="5">
<path transform="translate(33.9930, 22.5008) scale(0.0028, -0.0028)" d="M312 64c0 24 -20 41 -41 41c-4 0 -8 -1 -12 -2c-30 -9 -77 -38 -113 -62s-83 -54 -103 -78c-7 -8 -10 -17 -10 -27c0 -24 20 -41 41 -41c4 0 8 1 12 2c30 9 77 38 113 62s83 54 103 78c7 8 10 17 10 27zM259 137c48 0 86 -22 86 -74c0 -18 -4 -38 -10 -56
c-12 -38 -30 -73 -63 -95c-53 -36 -113 -49 -186 -49c-48 0 -86 22 -86 74c0 18 4 38 10 56c12 38 31 73 64 95c53 36 112 49 185 49z" fill="currentColor"/>
</g>
<g id="155" class="ly grob Stem" data-moment="4.00000000" data-measure="3" data-time="0.26666667">
<rect transform="translate(34.9295, 21.4402)" x="-0.0397" y="-2.1213" width="0.0795" height="2.2960" ry="0.0317" fill="currentColor"/>
</g>
<g id="151" class="ly grob Stem" data-moment="4.00000000" data-measure="3" data-time="0.26666667">
<rect transform="translate(34.0327, 21.4402)" x="-0.0397" y="1.2395" width="0.0795" height="1.8246" ry="0.0317" fill="currentColor"/>
</g>
<g id="50" class="ly grob Tie" data-moment="1.00000000" data-measure="1" data-time="0.06666667">
<path transform="translate(17.0636, 21.4402)" stroke-width="0.0489" stroke-linejoin="round" stroke-linecap="round" stroke="currentColor" fill="currentColor" d="M0.8879 -1.3107C1.7545 -2.1033 4.7620 -2.1033 5.6287 -1.3107L5.6287 -1.3107C4.7620 -2.0300 1.7545 -2.0300 0.8879 -1.3107z"/>
</g>
<g id="121" class="ly grob NoteHead" data-moment="3.00000000" data-measure="2" data-time="0.20000000" data-time-end="0.23333333" data-duration="0.50000000" data-pitch="14">
<path transform="translate(27.6035, 20.7331) scale(0.0028, -0.0028)" d="M312 64c0 24 -20 41 -41 41c-4 0 -8 -1 -12 -2c-30 -9 -77 -38 -113 -62s-83 -54 -103 -78c-7 -8 -10 -17 -10 -27c0 -24 20 -41 41 -41c4 0 8 1 12 2c30 9 77 38 113 62s83 54 103 78c7 8 10 17 10 27zM259 137c48 0 86 -22 86 -74c0 -18 -4 -38 -10 -56
c-12 -38 -30 -73 -63 -95c-53 -36 -113 -49 -186 -49c-48 0 -86 22 -86 74c0 18 4 38 10 56c12 38 31 73 64 95c53 36 112 49 185 49z" fill="currentColor"/>
</g>
<g id="120" class="ly grob NoteHead" data-moment="3.00000000" data-measure="2" data-time="0.20000000" data-time-end="0.23333333" data-duration="0.50000000" data-pitch="2">
<path transform="translate(27.6035, 23.2079) scale(0.0028, -0.0028)" d="M312 64c0 24 -20 41 -41 41c-4 0 -8 -1 -12 -2c-30 -9 -77 -38 -113 -62s-83 -54 -103 -78c-7 -8 -10 -17 -10 -27c0 -24 20 -41 41 -41c4 0 8 1 12 2c30 9 77 38 113 62s83 54 103 78c7 8 10 17 10 27zM259 137c48 0 86 -22 86 -74c0 -18 -4 -38 -10 -56
c-12 -38 -30 -73 -63 -95c-53 -36 -113 -49 -186 -49c-48 0 -86 22 -86 74c0 18 4 38 10 56c12 38 31 73 64 95c53 36 112 49 185 49z" fill="currentColor"/>
</g>
<g id="119" class="ly grob Stem" data-moment="3.00000000" data-measure="2" data-time="0.20000000">
<rect transform="translate(28.5400, 21.4402)" x="-0.0397" y="-2.8284" width="0.0795" height="1.9425" ry="0.0317" fill="currentColor"/>
</g>
<g id="115" class="ly grob Stem" data-moment="3.00000000" data-measure="2" data-time="0.20000000">
<rect transform="translate(27.6433, 21.4402)" x="-0.0397" y="1.9466" width="0.0795" height="1.5889" ry="0.0317" fill="currentColor"/>
</g>
<g id="134" class="ly grob NoteHead" data-moment="3.50000000" data-measure="2" data-time="0.23333333" data-time-end="0.26666667" data-duration="0.50000000" data-pitch="14">
<path transform="translate(30.3907, 20.7331) scale(0.0028, -0.0028)" d="M312 64c0 24 -20 41 -41 41c-4 0 -8 -1 -12 -2c-30 -9 -77 -38 -113 -62s-83 -54 -103 -78c-7 -8 -10 -17 -10 -27c0 -24 20 -41 41 -41c4 0 8 1 12 2c30 9 77 38 113 62s83 54 103 78c7 8 10 17 10 27zM259 137c48 0 86 -22 86 -74c0 -18 -4 -38 -10 -56
c-12 -38 -30 -73 -63 -95c-53 -36 -113 -49 -186 -49c-48 0 -86 22 -86 74c0 18 4 38 10 56c12 38 31 73 64 95c53 36 112 49 185 49z" fill="currentColor"/>
</g>
<g id="133" class="ly grob NoteHead" data-moment="3.50000000" data-measure="2" data-time="0.23333333" data-time-end="0.26666667" data-duration="0.50000000" data-pitch="5">
<path transform="translate(30.3907, 22.5008) scale(0.0028, -0.0028)" d="M312 64c0 24 -20 41 -41 41c-4 0 -8 -1 -12 -2c-30 -9 -77 -38 -113 -62s-83 -54 -103 -78c-7 -8 -10 -17 -10 -27c0 -24 20 -41 41 -41c4 0 8 1 12 2c30 9 77 38 113 62s83 54 103 78c7 8 10 17 10 27zM259 137c48 0 86 -22 86 -74c0 -18 -4 -38 -10 -56
c-12 -38 -30 -73 -63 -95c-53 -36 -113 -49 -186 -49c-48 0 -86 22 -86 74c0 18 4 38 10 56c12 38 31 73 64 95c53 36 112 49 185 49z" fill="currentColor"/>
</g>
<g id="132" class="ly grob Stem" data-moment="3.50000000" data-measure="2" data-time="0.23333333">
<rect transform="translate(31.3272, 21.4402)" x="-0.0397" y="-2.8284" width="0.0795" height="1.9425" ry="0.0317" fill="currentColor"/>
</g>
<g id="128" class="ly grob Stem" data-moment="3.50000000" data-measure="2" data-time="0.23333333">
<rect transform="translate(30.4304, 21.4402)" x="-0.0397" y="1.2395" width="0.0795" height="1.8246" ry="0.0317" fill="currentColor"/>
</g>
<g id="200" class="ly grob Stem" data-moment="5.50000000" data-measure="3" data-time="0.36666667">
<rect transform="translate(43.2910, 21.4402)" x="-0.0397" y="-3.0641" width="0.0795" height="1.8246" ry="0.0317" fill="currentColor"/>
</g>
<g id="195" class="ly grob Stem" data-moment="5.50000000" data-measure="3" data-time="0.36666667">
<rect transform="translate(42.3943, 21.4402)" x="-0.0397" y="0.8860" width="0.0795" height="1.9425" ry="0.0317" fill="currentColor"/>
</g>
<g id="201" class="ly grob NoteHead" data-moment="5.50000000" data-measure="3" data-time="0.36666667" data-time-end="0.40000000" data-duration="0.50000000" data-pitch="7">
<path transform="translate(42.3545, 22.1473) scale(0.0028, -0.0028)" d="M312 64c0 24 -20 41 -41 41c-4 0 -8 -1 -12 -2c-30 -9 -77 -38 -113 -62s-83 -54 -103 -78c-7 -8 -10 -17 -10 -27c0 -24 20 -41 41 -41c4 0 8 1 12 2c30 9 77 38 113 62s83 54 103 78c7 8 10 17 10 27zM259 137c48 0 86 -22 86 -74c0 -18 -4 -38 -10 -56
c-12 -38 -30 -73 -63 -95c-53 -36 -113 -49 -186 -49c-48 0 -86 22 -86 74c0 18 4 38 10 56c12 38 31 73 64 95c53 36 112 49 185 49z" fill="currentColor"/>
</g>
<g id="180" class="ly grob NoteHead" data-moment="4.50000000" data-measure="3" data-time="0.30000000" data-time-end="0.33333333" data-duration="0.50000000" data-pitch="12">
<path transform="translate(36.7802, 21.0866) scale(0.0028, -0.0028)" d="M312 64c0 24 -20 41 -41 41c-4 0 -8 -1 -12 -2c-30 -9 -77 -38 -113 -62s-83 -54 -103 -78c-7 -8 -10 -17 -10 -27c0 -24 20 -41 41 -41c4 0 8 1 12 2c30 9 77 38 113 62s83 54 103 78c7 8 10 17 10 27zM259 137c48 0 86 -22 86 -74c0 -18 -4 -38 -10 -56
c-12 -38 -30 -73 -63 -95c-53 -36 -113 -49 -186 -49c-48 0 -86 22 -86 74c0 18 4 38 10 56c12 38 31 73 64 95c53 36 112 49 185 49z" fill="currentColor"/>
</g>
<g id="179" class="ly grob NoteHead" data-moment="4.50000000" data-measure="3" data-time="0.30000000" data-time-end="0.36666667" data-duration="1" data-pitch="9">
<path transform="translate(36.7802, 21.7937) scale(0.0028, -0.0028)" d="M211 111c-49 0 -68 -43 -68 -88c0 -75 57 -134 132 -134c49 0 68 43 68 88c0 75 -57 134 -132 134zM486 0c0 -43 -33 -76 -71 -97c-52 -29 -112 -40 -172 -40s-120 11 -172 40c-38 21 -71 54 -71 97s33 76 71 97c52 29 112 40 172 40s120 -11 172 -40
c38 -21 71 -54 71 -97z" fill="currentColor"/>
</g>
<g id="178" class="ly grob Stem" data-moment="4.50000000" data-measure="3" data-time="0.30000000">
<rect transform="translate(37.7167, 21.4402)" x="-0.0397" y="-2.5927" width="0.0795" height="2.0603" ry="0.0317" fill="currentColor"/>
</g>
<g id="187" class="ly grob NoteHead" data-moment="5.00000000" data-measure="3" data-time="0.33333333" data-time-end="0.36666667" data-duration="0.50000000" data-pitch="12">
<path transform="translate(39.4424, 21.0866) scale(0.0028, -0.0028)" d="M312 64c0 24 -20 41 -41 41c-4 0 -8 -1 -12 -2c-30 -9 -77 -38 -113 -62s-83 -54 -103 -78c-7 -8 -10 -17 -10 -27c0 -24 20 -41 41 -41c4 0 8 1 12 2c30 9 77 38 113 62s83 54 103 78c7 8 10 17 10 27zM259 137c48 0 86 -22 86 -74c0 -18 -4 -38 -10 -56
c-12 -38 -30 -73 -63 -95c-53 -36 -113 -49 -186 -49c-48 0 -86 22 -86 74c0 18 4 38 10 56c12 38 31 73 64 95c53 36 112 49 185 49z" fill="currentColor"/>
</g>
<g id="186" class="ly grob Stem" data-moment="5.00000000" data-measure="3" data-time="0.33333333">
<rect transform="translate(40.3788, 21.4402)" x="-0.0397" y="-2.5927" width="0.0795" height="2.0603" ry="0.0317" fill="currentColor"/>
</g>
<g id="202" class="ly grob NoteHead" data-moment="5.50000000" data-measure="3" data-time="0.36666667" data-time-end="0.40000000" data-duration="0.50000000" data-pitch="16">
<path transform="translate(42.3545, 20.3795) scale(0.0028, -0.0028)" d="M312 64c0 24 -20 41 -41 41c-4 0 -8 -1 -12 -2c-30 -9 -77 -38 -113 -62s-83 -54 -103 -78c-7 -8 -10 -17 -10 -27c0 -24 20 -41 41 -41c4 0 8 1 12 2c30 9 77 38 113 62s83 54 103 78c7 8 10 17 10 27zM259 137c48 0 86 -22 86 -74c0 -18 -4 -38 -10 -56
c-12 -38 -30 -73 -63 -95c-53 -36 -113 -49 -186 -49c-48 0 -86 22 -86 74c0 18 4 38 10 56c12 38 31 73 64 95c53 36 112 49 185 49z" fill="currentColor"/>
</g>
<g id="14" class="ly grob Dots" data-moment="0.00000000" data-measure="1" data-time="0">
<path transform="translate(15.3100, 21.7937) scale(0.0028, -0.0028)" d="M0 0c0 31 25 56 56 56s55 -25 55 -56s-24 -56 -55 -56s-56 25 -56 56z" fill="currentColor"/>
</g>
<g id="40" class="ly grob AmbitusLine" data-moment="0.00000000" data-measure="1" data-time="0">
<rect transform="translate(4.9111, 12.6249)" x="-0.0864" y="-2.5111" width="0.1729" height="2.5222" ry="0.0317" fill="currentColor"/>
</g>
<g id="26" class="ly grob SystemStartBar" data-moment="0.00000000" data-measure="1" data-time="0">
<rect transform="translate(2.2199, 16.7333)" x="0.0000" y="-6.1517" width="0.1383" height="12.3033" ry="0.0432" fill="currentColor"/>
</g>
<g id="196" class="ly grob Tie" data-moment="5.50000000" data-measure="3" data-time="0.36666667">
<path transform="translate(42.3545, 21.4402)" stroke-width="0.0489" stroke-linejoin="round" stroke-linecap="round" stroke="currentColor" fill="currentColor" d="M1.3218 -1.4142C1.6284 -1.7889 2.1377 -1.7889 2.4443 -1.4142L2.4443 -1.4142C2.1377 -1.7155 1.6284 -1.7155 1.3218 -1.4142z"/>
</g>
<g id="46" class="ly grob Rest" data-moment="0.00000000" data-measure="1" data-time="0" data-time-end="0.50000000" data-duration="2">
<path transform="translate(13.6189, 12.6249) scale(0.0040, -0.0040)" d="M142 0h-134c-4 0 -8 4 -8 8v234c0 4 4 8 8 8h134c4 0 8 -4 8 -8v-234c0 -4 -4 -8 -8 -8z" fill="currentColor"/>
</g>
<g id="45" class="ly grob Clef" data-moment="0.00000000" data-measure="1" data-time="0">
<path transform="translate(6.0640, 11.6249) scale(0.0040, -0.0040)" d="M556 -125c0 29 23 52 52 52s52 -23 52 -52s-23 -52 -52 -52s-52 23 -52 52zM556 125c0 29 23 52 52 52s52 -23 52 -52s-23 -52 -52 -52s-52 23 -52 52zM233 261c171 0 292 -86 292 -248c0 -263 -264 -415 -517 -521c-2 -2 -5 -3 -8 -3c-6 0 -11 5 -11 11c0 3 1 6 3 8
c203 118 415 265 415 494c0 121 -64 237 -174 237c-79 0 -138 -57 -164 -133c14 8 28 13 43 13c55 0 100 -45 100 -100c0 -58 -44 -107 -100 -107c-60 0 -112 48 -112 107c0 132 103 242 233 242z" fill="currentColor"/>
</g>
<g id="44" class="ly grob KeySignature" data-moment="0.00000000" data-measure="1" data-time="0">
</g>
<g id="43" class="ly grob TimeSignature" data-moment="0.00000000" data-measure="1" data-time="0">
<path transform="translate(10.2640, 12.6249) scale(0.0040, -0.0040)" d="M208 319c21 13 42 27 57 47c11 15 18 32 25 49c4 9 20 7 20 -7v-256h68c9 0 13 -7 13 -14s-4 -13 -13 -13h-68v-16c0 -45 26 -88 68 -88c7 0 10 -5 10 -10s-3 -11 -10 -11c-41 0 -82 13 -123 13s-82 -13 -123 -13c-7 0 -10 6 -10 11s3 10 10 10c42 0 68 43 68 88v16h-173
c-21 0 -29 13 -29 21c0 2 1 5 2 6c81 96 146 208 146 333c0 8 5 15 12 15h3c22 -7 44 -13 67 -13s45 6 67 13c2 1 2 1 4 1c10 0 16 -10 11 -16l-283 -333h173v147c0 8 2 16 8 20z" fill="currentColor"/>
<path transform="translate(10.3317, 14.6301) scale(0.0040, -0.0040)" d="M21 10c-1 -7 -5 -10 -10 -10s-11 3 -11 10c0 175 236 165 236 345c0 61 -22 124 -75 124c-25 0 -48 -14 -48 -37c0 -27 35 -41 35 -68c0 -38 -31 -69 -69 -69s-68 31 -68 69c0 75 71 126 150 126c95 0 184 -57 184 -145c0 -158 -162 -160 -257 -229c12 3 24 5 37 5
c32 0 67 -10 101 -33c23 -16 49 -25 70 -25c20 0 37 8 42 28c1 6 6 8 10 8c5 0 11 -4 11 -10c0 -63 -85 -99 -132 -99c-35 0 -69 14 -94 42c-14 16 -32 23 -50 23c-30 0 -59 -21 -62 -55z" fill="currentColor"/>
</g>
<g id="55" class="ly grob NoteHead" data-moment="1.00000000" data-measure="1" data-time="0.06666667" data-time-end="0.13333333" data-duration="1" data-pitch="14">
<path transform="translate(17.0636, 20.7331) scale(0.0028, -0.0028)" d="M211 111c-49 0 -68 -43 -68 -88c0 -75 57 -134 132 -134c49 0 68 43 68 88c0 75 -57 134 -132 134zM486 0c0 -43 -33 -76 -71 -97c-52 -29 -112 -40 -172 -40s-120 11 -172 40c-38 21 -71 54 -71 97s33 76 71 97c52 29 112 40 172 40s120 -11 172 -40
c38 -21 71 -54 71 -97z" fill="currentColor"/>
</g>
<g id="38" class="ly grob AmbitusNoteHead" data-moment="0.00000000" data-measure="1" data-time="0" data-time-end="0.12500000" data-duration="0.50000000" data-pitch="-13">
<path transform="translate(4.2582, 13.6249) scale(0.0040, -0.0040)" d="M222 135c53 0 104 -27 104 -86c0 -71 -56 -120 -103 -148c-36 -22 -76 -36 -118 -36c-53 0 -105 27 -105 86c0 71 57 120 104 148c36 22 76 36 118 36z" fill="currentColor"/>
</g>
<g id="37" class="ly grob AmbitusNoteHead" data-moment="0.00000000" data-measure="1" data-time="0" data-time-end="0.09375000" data-duration="0.37500000" data-pitch="2">
<path transform="translate(4.2582, 9.1249) scale(0.0040, -0.0040)" d="M222 135c53 0 104 -27 104 -86c0 -71 -56 -120 -103 -148c-36 -22 -76 -36 -118 -36c-53 0 -105 27 -105 86c0 71 57 120 104 148c36 22 76 36 118 36z" fill="currentColor"/>
</g>
<g id="34" class="ly grob Rest" data-moment="0.00000000" data-measure="1" data-time="0" data-time-end="0.25000000" data-duration="1">
<path transform="translate(13.6189, 20.7331) scale(0.0028, -0.0028)" d="M364 -156h-353c-6 0 -11 5 -11 11v134c0 6 5 11 11 11h353c6 0 11 -5 11 -11v-134c0 -6 -5 -11 -11 -11z" fill="currentColor"/>
</g>
<g id="33" class="ly grob NoteHead" data-moment="0.00000000" data-measure="1" data-time="0" data-time-end="0.37500000" data-duration="1.50000000" data-pitch="7">
<path transform="translate(13.6189, 22.1473) scale(0.0028, -0.0028)" d="M211 111c-49 0 -68 -43 -68 -88c0 -75 57 -134 132 -134c49 0 68 43 68 88c0 75 -57 134 -132 134zM486 0c0 -43 -33 -76 -71 -97c-52 -29 -112 -40 -172 -40s-120 11 -172 40c-38 21 -71 54 -71 97s33 76 71 97c52 29 112 40 172 40s120 -11 172 -40
c38 -21 71 -54 71 -97z" fill="currentColor"/>
</g>
<g id="32" class="ly grob Clef" data-moment="0.00000000" data-measure="1" data-time="0">
<path transform="translate(6.0640, 22.1473) scale(0.0028, -0.0028)" d="M378 263c4 0 7 1 11 1c156 0 257 -129 257 -262c0 -76 -34 -154 -108 -210c-22 -17 -46 -29 -72 -37c3 -34 4 -68 4 -102c0 -20 0 -40 -1 -60c-7 -121 -90 -228 -209 -228c-108 0 -196 87 -196 196c0 58 53 104 112 104c54 0 95 -48 95 -104c0 -52 -43 -95 -95 -95
c-10 0 -20 2 -29 6c26 -38 68 -63 116 -63c95 0 156 91 162 190c1 19 2 37 2 56c0 30 -2 60 -4 90c-29 -5 -58 -8 -88 -8c-188 0 -333 173 -333 375c0 177 130 307 246 442c-20 62 -38 125 -46 190c-6 52 -7 104 -7 157c0 115 55 223 148 290c3 2 7 3 11 3s8 -1 11 -4
c71 -83 134 -244 134 -357c0 -143 -85 -255 -178 -364c21 -68 40 -137 57 -206zM462 -202c67 24 111 94 111 162c0 89 -65 178 -170 190c24 -115 46 -230 59 -352zM75 26c0 -134 129 -245 263 -245c28 0 55 2 81 6c-14 126 -36 244 -61 363c-79 -8 -124 -61 -124 -119
c0 -43 25 -89 80 -121c5 -5 7 -11 7 -16c0 -12 -10 -23 -22 -23c-3 0 -6 1 -9 2c-81 43 -118 116 -118 186c0 89 58 175 161 198c-14 58 -29 116 -46 173c-106 -122 -212 -244 -212 -404zM406 1042c-99 -47 -162 -148 -162 -257c0 -73 20 -132 38 -191
c79 97 144 199 144 324c0 53 -4 76 -20 124z" fill="currentColor"/>
</g>
<g id="31" class="ly grob KeySignature" data-moment="0.00000000" data-measure="1" data-time="0">
</g>
<g id="30" class="ly grob TimeSignature" data-moment="0.00000000" data-measure="1" data-time="0">
<path transform="translate(10.2640, 21.4402) scale(0.0028, -0.0028)" d="M203 301c22 15 45 30 61 51c12 15 19 34 27 51c2 4 5 6 9 6c6 0 14 -6 14 -15v-238h74c10 0 16 -8 16 -16s-6 -15 -16 -15h-74v-5c0 -49 29 -95 75 -95c8 0 12 -7 12 -13s-4 -12 -12 -12c-45 0 -90 13 -135 13s-90 -13 -135 -13c-8 0 -12 6 -12 12s4 13 12 13
c46 0 75 46 75 95v5h-163c-24 0 -33 15 -33 24c0 3 1 6 2 7c80 92 134 205 134 327c0 10 6 17 14 17h3c24 -7 48 -13 73 -13s48 6 72 13c2 1 4 1 6 1c9 0 14 -7 14 -13c0 -2 0 -3 -2 -5l-283 -327h163v122c0 9 2 18 9 23z" fill="currentColor"/>
<path transform="translate(10.3046, 22.8493) scale(0.0028, -0.0028)" d="M25 11c-1 -8 -7 -11 -13 -11s-12 4 -12 12c0 175 235 164 235 343c0 59 -18 120 -69 120c-27 0 -52 -13 -52 -37c0 -27 35 -41 35 -68c0 -38 -30 -68 -68 -68s-69 30 -69 68c0 76 73 130 154 130c97 0 189 -56 189 -145c0 -150 -148 -158 -246 -216c7 1 15 2 22 2
c34 0 71 -12 106 -37c21 -15 44 -23 64 -23c22 0 40 10 45 30c2 6 6 9 11 9c6 0 13 -5 13 -12v-4c-18 -66 -80 -104 -140 -104c-36 0 -72 14 -97 45c-13 15 -30 22 -47 22c-30 0 -58 -21 -61 -56z" fill="currentColor"/>
</g>
<g id="79" class="ly grob Stem" data-moment="2.00000000" data-measure="2" data-time="0.13333333">
<rect transform="translate(22.4439, 21.4402)" x="-0.0397" y="0.8860" width="0.0795" height="1.9425" ry="0.0317" fill="currentColor"/>
</g>
<g id="108" class="ly grob NoteHead" data-moment="2.50000000" data-measure="2" data-time="0.16666667" data-time-end="0.20000000" data-duration="0.50000000" data-pitch="14">
<path transform="translate(25.0663, 20.7331) scale(0.0028, -0.0028)" d="M312 64c0 24 -20 41 -41 41c-4 0 -8 -1 -12 -2c-30 -9 -77 -38 -113 -62s-83 -54 -103 -78c-7 -8 -10 -17 -10 -27c0 -24 20 -41 41 -41c4 0 8 1 12 2c30 9 77 38 113 62s83 54 103 78c7 8 10 17 10 27zM259 137c48 0 86 -22 86 -74c0 -18 -4 -38 -10 -56
c-12 -38 -30 -73 -63 -95c-53 -36 -113 -49 -186 -49c-48 0 -86 22 -86 74c0 18 4 38 10 56c12 38 31 73 64 95c53 36 112 49 185 49z" fill="currentColor"/>
</g>
<g id="107" class="ly grob NoteHead" data-moment="2.50000000" data-measure="2" data-time="0.16666667" data-time-end="0.20000000" data-duration="0.50000000" data-pitch="7">
<path transform="translate(25.0663, 22.1473) scale(0.0028, -0.0028)" d="M312 64c0 24 -20 41 -41 41c-4 0 -8 -1 -12 -2c-30 -9 -77 -38 -113 -62s-83 -54 -103 -78c-7 -8 -10 -17 -10 -27c0 -24 20 -41 41 -41c4 0 8 1 12 2c30 9 77 38 113 62s83 54 103 78c7 8 10 17 10 27zM259 137c48 0 86 -22 86 -74c0 -18 -4 -38 -10 -56
c-12 -38 -30 -73 -63 -95c-53 -36 -113 -49 -186 -49c-48 0 -86 22 -86 74c0 18 4 38 10 56c12 38 31 73 64 95c53 36 112 49 185 49z" fill="currentColor"/>
</g>
<g id="106" class="ly grob Stem" data-moment="2.50000000" data-measure="2" data-time="0.16666667">
<rect transform="translate(26.0028, 21.4402)" x="-0.0397" y="-2.8284" width="0.0795" height="1.9425" ry="0.0317" fill="currentColor"/>
</g>
<g id="102" class="ly grob Stem" data-moment="2.50000000" data-measure="2" data-time="0.16666667">
<rect transform="translate(25.1061, 21.4402)" x="-0.0397" y="0.8860" width="0.0795" height="1.9425" ry="0.0317" fill="currentColor"/>
</g>
<g id="61" class="ly grob Stem" data-moment="1.50000000" data-measure="1" data-time="0.10000000">
<rect transform="translate(18.8954, 21.4402)" x="-0.0397" y="0.8860" width="0.0795" height="1.9425" ry="0.0317" fill="currentColor"/>
</g>
<g id="95" class="ly grob Rest" data-moment="2.00000000" data-measure="2" data-time="0.13333333" data-time-end="0.26666667" data-duration="2">
<path transform="translate(22.4042, 12.6249) scale(0.0040, -0.0040)" d="M142 0h-134c-4 0 -8 4 -8 8v234c0 4 4 8 8 8h134c4 0 8 -4 8 -8v-234c0 -4 -4 -8 -8 -8z" fill="currentColor"/>
</g>
<g id="83" class="ly grob Stem" data-moment="2.00000000" data-measure="2" data-time="0.13333333">
<rect transform="translate(23.3406, 21.4402)" x="-0.0397" y="-2.8284" width="0.0795" height="1.9425" ry="0.0317" fill="currentColor"/>
</g>
<g id="94" class="ly grob NoteHead" data-moment="2.00000000" data-measure="2" data-time="0.13333333" data-time-end="0.16666667" data-duration="0.50000000" data-pitch="14">
<path transform="translate(22.4042, 20.7331) scale(0.0028, -0.0028)" d="M312 64c0 24 -20 41 -41 41c-4 0 -8 -1 -12 -2c-30 -9 -77 -38 -113 -62s-83 -54 -103 -78c-7 -8 -10 -17 -10 -27c0 -24 20 -41 41 -41c4 0 8 1 12 2c30 9 77 38 113 62s83 54 103 78c7 8 10 17 10 27zM259 137c48 0 86 -22 86 -74c0 -18 -4 -38 -10 -56
c-12 -38 -30 -73 -63 -95c-53 -36 -113 -49 -186 -49c-48 0 -86 22 -86 74c0 18 4 38 10 56c12 38 31 73 64 95c53 36 112 49 185 49z" fill="currentColor"/>
</g>
<g id="93" class="ly grob NoteHead" data-moment="2.00000000" data-measure="2" data-time="0.13333333" data-time-end="0.16666667" data-duration="0.50000000" data-pitch="7">
<path transform="translate(22.4042, 22.1473) scale(0.0028, -0.0028)" d="M312 64c0 24 -20 41 -41 41c-4 0 -8 -1 -12 -2c-30 -9 -77 -38 -113 -62s-83 -54 -103 -78c-7 -8 -10 -17 -10 -27c0 -24 20 -41 41 -41c4 0 8 1 12 2c30 9 77 38 113 62s83 54 103 78c7 8 10 17 10 27zM259 137c48 0 86 -22 86 -74c0 -18 -4 -38 -10 -56
c-12 -38 -30 -73 -63 -95c-53 -36 -113 -49 -186 -49c-48 0 -86 22 -86 74c0 18 4 38 10 56c12 38 31 73 64 95c53 36 112 49 185 49z" fill="currentColor"/>
</g>
<g id="62" class="ly grob NoteHead" data-moment="1.50000000" data-measure="1" data-time="0.10000000" data-time-end="0.13333333" data-duration="0.50000000" data-pitch="7">
<path transform="translate(18.8556, 22.1473) scale(0.0028, -0.0028)" d="M312 64c0 24 -20 41 -41 41c-4 0 -8 -1 -12 -2c-30 -9 -77 -38 -113 -62s-83 -54 -103 -78c-7 -8 -10 -17 -10 -27c0 -24 20 -41 41 -41c4 0 8 1 12 2c30 9 77 38 113 62s83 54 103 78c7 8 10 17 10 27zM259 137c48 0 86 -22 86 -74c0 -18 -4 -38 -10 -56
c-12 -38 -30 -73 -63 -95c-53 -36 -113 -49 -186 -49c-48 0 -86 22 -86 74c0 18 4 38 10 56c12 38 31 73 64 95c53 36 112 49 185 49z" fill="currentColor"/>
</g>
<g id="41" class="ly grob StaffSymbol" data-moment="0.00000000" data-measure="1" data-time="0">
<line transform="translate(2.2582, 34.7014)" stroke-linejoin="round" stroke-linecap="round" stroke-width="0.0864" stroke="currentColor" x1="0.0432" y1="-0.0000" x2="42.8617" y2="-0.0000"/>
<line transform="translate(2.2582, 33.7014)" stroke-linejoin="round" stroke-linecap="round" stroke-width="0.0864" stroke="currentColor" x1="0.0432" y1="-0.0000" x2="42.8617" y2="-0.0000"/>
<line transform="translate(2.2582, 32.7014)" stroke-linejoin="round" stroke-linecap="round" stroke-width="0.0864" stroke="currentColor" x1="0.0432" y1="-0.0000" x2="42.8617" y2="-0.0000"/>
<line transform="translate(2.2582, 31.7014)" stroke-linejoin="round" stroke-linecap="round" stroke-width="0.0864" stroke="currentColor" x1="0.0432" y1="-0.0000" x2="42.8617" y2="-0.0000"/>
<line transform="translate(2.2582, 30.7014)" stroke-linejoin="round" stroke-linecap="round" stroke-width="0.0864" stroke="currentColor" x1="0.0432" y1="-0.0000" x2="42.8617" y2="-0.0000"/>
</g>
<g id="331" class="ly grob BarLine" data-moment="10.00000000" data-measure="6" data-time="0.66666667">
<rect transform="translate(29.4713, 32.7014)" x="0.0000" y="-2.0000" width="0.1642" height="4.0000" ry="0.0000" fill="currentColor"/>
</g>
<g id="398" class="ly grob BarLine" data-moment="12.00000000" data-measure="7" data-time="0.80000000">
<rect transform="translate(44.9989, 32.7014)" x="0.0000" y="-2.0000" width="0.1642" height="4.0000" ry="0.0000" fill="currentColor"/>
</g>
<g id="287" class="ly grob BarLine" data-moment="8.00000000" data-measure="5" data-time="0.53333333">
<rect transform="translate(20.0084, 32.7014)" x="0.0000" y="-2.0000" width="0.1642" height="4.0000" ry="0.0000" fill="currentColor"/>
</g>
<g id="389" class="ly grob BarLine" data-moment="12.00000000" data-measure="7" data-time="0.80000000">
<rect transform="translate(44.9989, 41.5167)" x="0.0000" y="-1.4142" width="0.1642" height="2.8284" ry="0.0000" fill="currentColor"/>
</g>
<g id="323" class="ly grob BarLine" data-moment="10.00000000" data-measure="6" data-time="0.66666667">
<rect transform="translate(29.4713, 41.5167)" x="0.0000" y="-1.4142" width="0.1642" height="2.8284" ry="0.0000" fill="currentColor"/>
</g>
<g id="276" class="ly grob BarLine" data-moment="8.00000000" data-measure="5" data-time="0.53333333">
<rect transform="translate(20.0084, 41.5167)" x="0.0000" y="-1.4142" width="0.1642" height="2.8284" ry="0.0000" fill="currentColor"/>
</g>
<g id="28" class="ly grob StaffSymbol" data-moment="0.00000000" data-measure="1" data-time="0">
<line transform="translate(2.2582, 42.9309)" stroke-linejoin="round" stroke-linecap="round" stroke-width="0.0611" stroke="currentColor" x1="0.0306" y1="-0.0000" x2="42.8744" y2="-0.0000"/>
<line transform="translate(2.2582, 42.2238)" stroke-linejoin="round" stroke-linecap="round" stroke-width="0.0611" stroke="currentColor" x1="0.0306" y1="-0.0000" x2="42.8744" y2="-0.0000"/>
<line transform="translate(2.2582, 41.5167)" stroke-linejoin="round" stroke-linecap="round" stroke-width="0.0611" stroke="currentColor" x1="0.0306" y1="-0.0000" x2="42.8744" y2="-0.0000"/>
<line transform="translate(2.2582, 40.8096)" stroke-linejoin="round" stroke-linecap="round" stroke-width="0.0611" stroke="currentColor" x1="0.0306" y1="-0.0000" x2="42.8744" y2="-0.0000"/>
<line transform="translate(2.2582, 40.1025)" stroke-linejoin="round" stroke-linecap="round" stroke-width="0.0611" stroke="currentColor" x1="0.0306" y1="-0.0000" x2="42.8744" y2="-0.0000"/>
</g>
<g id="327" class="ly grob Stem" data-moment="10.00000000" data-measure="6" data-time="0.66666667">
<rect transform="translate(30.6350, 41.5167)" x="-0.0397" y="-0.8818" width="0.0795" height="2.2960" ry="0.0317" fill="currentColor"/>
</g>
<g id="311" class="ly grob NoteHead" data-moment="9.50000000" data-measure="5" data-time="0.63333333" data-time-end="0.66666667" data-duration="0.50000000" data-pitch="-5">
<path transform="translate(26.4350, 31.2014) scale(0.0040, -0.0040)" d="M316 67c0 25 -20 42 -42 42c-4 0 -9 -1 -13 -2c-31 -9 -79 -41 -117 -65s-86 -55 -107 -80c-7 -8 -10 -19 -10 -29c0 -25 20 -42 42 -42c4 0 9 1 13 2c31 9 79 41 117 65s86 55 107 80c7 8 10 19 10 29zM265 135c44 0 78 -21 78 -68c0 -19 -5 -39 -11 -57
c-12 -37 -33 -71 -65 -93c-53 -36 -114 -52 -189 -52c-44 0 -78 21 -78 68c0 19 5 39 11 57c12 37 33 71 65 93c53 36 114 52 189 52z" fill="currentColor"/>
</g>
<g id="310" class="ly grob LyricText" data-moment="9.50000000" data-measure="5" data-time="0.63333333" data-time-end="0.76666667" data-duration="2">
<text transform="translate(25.9287, 38.0533)" font-family="serif" font-size="2.4694" text-anchor="start" fill="currentColor">
<tspan>in</tspan>
</text>
</g>
<g id="309" class="ly grob NoteHead" data-moment="9.50000000" data-measure="5" data-time="0.63333333" data-time-end="0.66666667" data-duration="0.50000000" data-pitch="-5">
<path transform="translate(26.4350, 40.4561) scale(0.0028, -0.0028)" d="M312 64c0 24 -20 41 -41 41c-4 0 -8 -1 -12 -2c-30 -9 -77 -38 -113 -62s-83 -54 -103 -78c-7 -8 -10 -17 -10 -27c0 -24 20 -41 41 -41c4 0 8 1 12 2c30 9 77 38 113 62s83 54 103 78c7 8 10 17 10 27zM259 137c48 0 86 -22 86 -74c0 -18 -4 -38 -10 -56
c-12 -38 -30 -73 -63 -95c-53 -36 -113 -49 -186 -49c-48 0 -86 22 -86 74c0 18 4 38 10 56c12 38 31 73 64 95c53 36 112 49 185 49z" fill="currentColor"/>
</g>
<g id="308" class="ly grob Stem" data-moment="9.50000000" data-measure="5" data-time="0.63333333">
<rect transform="translate(26.4912, 32.7014)" x="-0.0562" y="-1.2316" width="0.1124" height="3.2316" ry="0.0317" fill="currentColor"/>
</g>
<g id="335" class="ly grob Stem" data-moment="10.00000000" data-measure="6" data-time="0.66666667">
<rect transform="translate(30.6514, 32.7014)" x="-0.0562" y="-1.2316" width="0.1124" height="3.2316" ry="0.0317" fill="currentColor"/>
</g>
<g id="303" class="ly grob Stem" data-moment="9.50000000" data-measure="5" data-time="0.63333333">
<rect transform="translate(26.4747, 41.5167)" x="-0.0397" y="-0.8818" width="0.0795" height="2.2960" ry="0.0317" fill="currentColor"/>
</g>
<g id="340" class="ly grob NoteHead" data-moment="10.00000000" data-measure="6" data-time="0.66666667" data-time-end="0.70000000" data-duration="0.50000000" data-pitch="-5">
<path transform="translate(30.5952, 31.2014) scale(0.0040, -0.0040)" d="M316 67c0 25 -20 42 -42 42c-4 0 -9 -1 -13 -2c-31 -9 -79 -41 -117 -65s-86 -55 -107 -80c-7 -8 -10 -19 -10 -29c0 -25 20 -42 42 -42c4 0 9 1 13 2c31 9 79 41 117 65s86 55 107 80c7 8 10 19 10 29zM265 135c44 0 78 -21 78 -68c0 -19 -5 -39 -11 -57
c-12 -37 -33 -71 -65 -93c-53 -36 -114 -52 -189 -52c-44 0 -78 21 -78 68c0 19 5 39 11 57c12 37 33 71 65 93c53 36 114 52 189 52z" fill="currentColor"/>
</g>
<g id="339" class="ly grob LyricText" data-moment="10.00000000" data-measure="6" data-time="0.66666667" data-time-end="0.80000000" data-duration="2">
<text transform="translate(30.5496, 38.0533)" font-family="serif" font-size="2.4694" text-anchor="start" fill="currentColor">
<tspan>a</tspan>
</text>
</g>
<g id="337" class="ly grob NoteHead" data-moment="10.00000000" data-measure="6" data-time="0.66666667" data-time-end="0.70000000" data-duration="0.50000000" data-pitch="-5">
<path transform="translate(30.5952, 40.4561) scale(0.0028, -0.0028)" d="M312 64c0 24 -20 41 -41 41c-4 0 -8 -1 -12 -2c-30 -9 -77 -38 -113 -62s-83 -54 -103 -78c-7 -8 -10 -17 -10 -27c0 -24 20 -41 41 -41c4 0 8 1 12 2c30 9 77 38 113 62s83 54 103 78c7 8 10 17 10 27zM259 137c48 0 86 -22 86 -74c0 -18 -4 -38 -10 -56
c-12 -38 -30 -73 -63 -95c-53 -36 -113 -49 -186 -49c-48 0 -86 22 -86 74c0 18 4 38 10 56c12 38 31 73 64 95c53 36 112 49 185 49z" fill="currentColor"/>
</g>
<g id="369" class="ly grob Stem" data-moment="11.50000000" data-measure="6" data-time="0.76666667">
<rect transform="translate(41.9309, 41.5167)" x="-0.0397" y="0.1789" width="0.0795" height="2.1782" ry="0.0317" fill="currentColor"/>
</g>
<g id="352" class="ly grob LyricHyphen" data-moment="10.50000000" data-measure="6" data-time="0.70000000">
<rect transform="translate(35.4047, 38.0533)" x="0.0000" y="-0.5324" width="0.3251" height="0.1124" ry="0.0346" fill="currentColor"/>
</g>
<g id="338" class="ly grob LyricHyphen" data-moment="10.00000000" data-measure="6" data-time="0.66666667">
<rect transform="translate(32.5580, 38.0533)" x="0.0000" y="-0.5324" width="0.6600" height="0.1124" ry="0.0346" fill="currentColor"/>
</g>
<g id="363" class="ly grob NoteHead" data-moment="11.00000000" data-measure="6" data-time="0.73333333" data-time-end="0.76666667" data-duration="0.50000000" data-pitch="-10">
<path transform="translate(37.0784, 32.7014) scale(0.0040, -0.0040)" d="M316 67c0 25 -20 42 -42 42c-4 0 -9 -1 -13 -2c-31 -9 -79 -41 -117 -65s-86 -55 -107 -80c-7 -8 -10 -19 -10 -29c0 -25 20 -42 42 -42c4 0 9 1 13 2c31 9 79 41 117 65s86 55 107 80c7 8 10 19 10 29zM265 135c44 0 78 -21 78 -68c0 -19 -5 -39 -11 -57
c-12 -37 -33 -71 -65 -93c-53 -36 -114 -52 -189 -52c-44 0 -78 21 -78 68c0 19 5 39 11 57c12 37 33 71 65 93c53 36 114 52 189 52z" fill="currentColor"/>
</g>
<g id="353" class="ly grob LyricText" data-moment="10.50000000" data-measure="6" data-time="0.70000000" data-time-end="0.83333333" data-duration="2">
<text transform="translate(33.7631, 38.0533)" font-family="serif" font-size="2.4694" text-anchor="start" fill="currentColor">
<tspan>li</tspan>
</text>
</g>
<g id="351" class="ly grob NoteHead" data-moment="10.50000000" data-measure="6" data-time="0.70000000" data-time-end="0.76666667" data-duration="1" data-pitch="-10">
<path transform="translate(33.8629, 41.5167) scale(0.0028, -0.0028)" d="M211 111c-49 0 -68 -43 -68 -88c0 -75 57 -134 132 -134c49 0 68 43 68 88c0 75 -57 134 -132 134zM486 0c0 -43 -33 -76 -71 -97c-52 -29 -112 -40 -172 -40s-120 11 -172 40c-38 21 -71 54 -71 97s33 76 71 97c52 29 112 40 172 40s120 -11 172 -40
c38 -21 71 -54 71 -97z" fill="currentColor"/>
</g>
<g id="350" class="ly grob Stem" data-moment="10.50000000" data-measure="6" data-time="0.70000000">
<rect transform="translate(33.9191, 32.7014)" x="-0.0562" y="-0.7316" width="0.1124" height="3.2316" ry="0.0317" fill="currentColor"/>
</g>
<g id="354" class="ly grob NoteHead" data-moment="10.50000000" data-measure="6" data-time="0.70000000" data-time-end="0.73333333" data-duration="0.50000000" data-pitch="-7">
<path transform="translate(33.8629, 31.7014) scale(0.0040, -0.0040)" d="M316 67c0 25 -20 42 -42 42c-4 0 -9 -1 -13 -2c-31 -9 -79 -41 -117 -65s-86 -55 -107 -80c-7 -8 -10 -19 -10 -29c0 -25 20 -42 42 -42c4 0 9 1 13 2c31 9 79 41 117 65s86 55 107 80c7 8 10 19 10 29zM265 135c44 0 78 -21 78 -68c0 -19 -5 -39 -11 -57
c-12 -37 -33 -71 -65 -93c-53 -36 -114 -52 -189 -52c-44 0 -78 21 -78 68c0 19 5 39 11 57c12 37 33 71 65 93c53 36 114 52 189 52z" fill="currentColor"/>
</g>
<g id="362" class="ly grob LyricText" data-moment="11.00000000" data-measure="6" data-time="0.73333333" data-time-end="0.86666667" data-duration="2">
<text transform="translate(35.7998, 38.0533)" font-family="serif" font-size="2.4694" text-anchor="start" fill="currentColor">
<tspan>um</tspan>
</text>
</g>
<g id="361" class="ly grob Stem" data-moment="11.00000000" data-measure="6" data-time="0.73333333">
<rect transform="translate(37.1346, 32.7014)" x="-0.0562" y="0.2684" width="0.1124" height="3.0649" ry="0.0317" fill="currentColor"/>
</g>
<g id="377" class="ly grob NoteHead" data-moment="11.50000000" data-measure="6" data-time="0.76666667" data-time-end="0.80000000" data-duration="0.50000000" data-pitch="-7">
<path transform="translate(41.8912, 31.7014) scale(0.0040, -0.0040)" d="M316 67c0 25 -20 42 -42 42c-4 0 -9 -1 -13 -2c-31 -9 -79 -41 -117 -65s-86 -55 -107 -80c-7 -8 -10 -19 -10 -29c0 -25 20 -42 42 -42c4 0 9 1 13 2c31 9 79 41 117 65s86 55 107 80c7 8 10 19 10 29zM265 135c44 0 78 -21 78 -68c0 -19 -5 -39 -11 -57
c-12 -37 -33 -71 -65 -93c-53 -36 -114 -52 -189 -52c-44 0 -78 21 -78 68c0 19 5 39 11 57c12 37 33 71 65 93c53 36 114 52 189 52z" fill="currentColor"/>
</g>
<g id="376" class="ly grob LyricText" data-moment="11.50000000" data-measure="6" data-time="0.76666667" data-time-end="0.90000000" data-duration="2">
<text transform="translate(40.1790, 38.0533)" font-family="serif" font-size="2.4694" text-anchor="start" fill="currentColor">
<tspan>nun</tspan>
</text>
</g>
<g id="374" class="ly grob NoteHead" data-moment="11.50000000" data-measure="6" data-time="0.76666667" data-time-end="0.80000000" data-duration="0.50000000" data-pitch="-10">
<path transform="translate(41.8912, 41.5167) scale(0.0028, -0.0028)" d="M312 64c0 24 -20 41 -41 41c-4 0 -8 -1 -12 -2c-30 -9 -77 -38 -113 -62s-83 -54 -103 -78c-7 -8 -10 -17 -10 -27c0 -24 20 -41 41 -41c4 0 8 1 12 2c30 9 77 38 113 62s83 54 103 78c7 8 10 17 10 27zM259 137c48 0 86 -22 86 -74c0 -18 -4 -38 -10 -56
c-12 -38 -30 -73 -63 -95c-53 -36 -113 -49 -186 -49c-48 0 -86 22 -86 74c0 18 4 38 10 56c12 38 31 73 64 95c53 36 112 49 185 49z" fill="currentColor"/>
</g>
<g id="373" class="ly grob Stem" data-moment="11.50000000" data-measure="6" data-time="0.76666667">
<rect transform="translate(41.9474, 32.7014)" x="-0.0562" y="-0.7316" width="0.1124" height="3.2316" ry="0.0317" fill="currentColor"/>
</g>
<g id="235" class="ly grob Rest" data-moment="6.00000000" data-measure="4" data-time="0.40000000" data-time-end="0.53333333" data-duration="2">
<path transform="translate(8.0582, 32.7014) scale(0.0040, -0.0040)" d="M142 0h-134c-4 0 -8 4 -8 8v234c0 4 4 8 8 8h134c4 0 8 -4 8 -8v-234c0 -4 -4 -8 -8 -8z" fill="currentColor"/>
</g>
<g id="234" class="ly grob NoteHead" data-moment="6.00000000" data-measure="4" data-time="0.40000000" data-time-end="0.41666667" data-duration="0.25000000" data-pitch="16">
<path transform="translate(8.0582, 40.4561) scale(0.0028, -0.0028)" d="M215 137c57 0 111 -29 111 -92c0 -71 -54 -120 -101 -148c-35 -21 -74 -34 -114 -34c-57 0 -111 29 -111 92c0 71 54 120 101 148c35 21 74 34 114 34z" fill="currentColor"/>
</g>
<g id="233" class="ly grob NoteHead" data-moment="6.00000000" data-measure="4" data-time="0.40000000" data-time-end="0.46666667" data-duration="1" data-pitch="5">
<path transform="translate(8.0582, 42.5774) scale(0.0028, -0.0028)" d="M211 111c-49 0 -68 -43 -68 -88c0 -75 57 -134 132 -134c49 0 68 43 68 88c0 75 -57 134 -132 134zM486 0c0 -43 -33 -76 -71 -97c-52 -29 -112 -40 -172 -40s-120 11 -172 40c-38 21 -71 54 -71 97s33 76 71 97c52 29 112 40 172 40s120 -11 172 -40
c38 -21 71 -54 71 -97z" fill="currentColor"/>
</g>
<g id="223" class="ly grob Stem" data-moment="6.00000000" data-measure="4" data-time="0.40000000">
<rect transform="translate(8.9396, 41.5167)" x="-0.0397" y="-3.0641" width="0.0795" height="1.8766" ry="0.0317" fill="currentColor"/>
</g>
<g id="242" class="ly grob NoteHead" data-moment="6.25000000" data-measure="4" data-time="0.41666667" data-time-end="0.43333333" data-duration="0.25000000" data-pitch="14">
<path transform="translate(10.2060, 40.8096) scale(0.0028, -0.0028)" d="M215 137c57 0 111 -29 111 -92c0 -71 -54 -120 -101 -148c-35 -21 -74 -34 -114 -34c-57 0 -111 29 -111 92c0 71 54 120 101 148c35 21 74 34 114 34z" fill="currentColor"/>
</g>
<g id="241" class="ly grob Stem" data-moment="6.25000000" data-measure="4" data-time="0.41666667">
<rect transform="translate(11.0875, 41.5167)" x="-0.0397" y="-2.8284" width="0.0795" height="1.9945" ry="0.0317" fill="currentColor"/>
</g>
<g id="26" class="ly grob SystemStartBar" data-moment="0.00000000" data-measure="1" data-time="0">
<rect transform="translate(2.2199, 36.8098)" x="0.0000" y="-6.1517" width="0.1383" height="12.3033" ry="0.0432" fill="currentColor"/>
</g>
<g id="196" class="ly grob Tie" data-moment="5.50000000" data-measure="3" data-time="0.36666667">
<path transform="translate(2.2582, 41.5167)" stroke-width="0.0489" stroke-linejoin="round" stroke-linecap="round" stroke="currentColor" fill="currentColor" d="M2.8137 -1.7678C3.5011 -2.4657 5.3732 -2.4657 6.0606 -1.7678L6.0606 -1.7678C5.3732 -2.3923 3.5011 -2.3923 2.8137 -1.7678z"/>
</g>
<g id="375" class="ly grob LyricHyphen" data-moment="11.50000000" data-measure="6" data-time="0.76666667">
<rect transform="translate(44.9754, 38.0533)" x="0.0000" y="-0.5324" width="0.6600" height="0.1124" ry="0.0346" fill="currentColor"/>
</g>
<g id="232" class="ly grob BarNumber" data-moment="6.00000000" data-measure="4" data-time="0.40000000">
<text transform="translate(1.1471, 29.6582)" font-family="serif" font-size="1.7461" text-anchor="start" fill="currentColor">
<tspan>4</tspan>
</text>
</g>
<g id="225" class="ly grob Clef" data-moment="6.00000000" data-measure="4" data-time="0.40000000">
<path transform="translate(3.0582, 31.7014) scale(0.0040, -0.0040)" d="M556 -125c0 29 23 52 52 52s52 -23 52 -52s-23 -52 -52 -52s-52 23 -52 52zM556 125c0 29 23 52 52 52s52 -23 52 -52s-23 -52 -52 -52s-52 23 -52 52zM233 261c171 0 292 -86 292 -248c0 -263 -264 -415 -517 -521c-2 -2 -5 -3 -8 -3c-6 0 -11 5 -11 11c0 3 1 6 3 8
c203 118 415 265 415 494c0 121 -64 237 -174 237c-79 0 -138 -57 -164 -133c14 8 28 13 43 13c55 0 100 -45 100 -100c0 -58 -44 -107 -100 -107c-60 0 -112 48 -112 107c0 132 103 242 233 242z" fill="currentColor"/>
</g>
<g id="224" class="ly grob KeySignature" data-moment="6.00000000" data-measure="4" data-time="0.40000000">
</g>
<g id="213" class="ly grob Clef" data-moment="6.00000000" data-measure="4" data-time="0.40000000">
<path transform="translate(3.0582, 42.2238) scale(0.0028, -0.0028)" d="M378 263c4 0 7 1 11 1c156 0 257 -129 257 -262c0 -76 -34 -154 -108 -210c-22 -17 -46 -29 -72 -37c3 -34 4 -68 4 -102c0 -20 0 -40 -1 -60c-7 -121 -90 -228 -209 -228c-108 0 -196 87 -196 196c0 58 53 104 112 104c54 0 95 -48 95 -104c0 -52 -43 -95 -95 -95
c-10 0 -20 2 -29 6c26 -38 68 -63 116 -63c95 0 156 91 162 190c1 19 2 37 2 56c0 30 -2 60 -4 90c-29 -5 -58 -8 -88 -8c-188 0 -333 173 -333 375c0 177 130 307 246 442c-20 62 -38 125 -46 190c-6 52 -7 104 -7 157c0 115 55 223 148 290c3 2 7 3 11 3s8 -1 11 -4
c71 -83 134 -244 134 -357c0 -143 -85 -255 -178 -364c21 -68 40 -137 57 -206zM462 -202c67 24 111 94 111 162c0 89 -65 178 -170 190c24 -115 46 -230 59 -352zM75 26c0 -134 129 -245 263 -245c28 0 55 2 81 6c-14 126 -36 244 -61 363c-79 -8 -124 -61 -124 -119
c0 -43 25 -89 80 -121c5 -5 7 -11 7 -16c0 -12 -10 -23 -22 -23c-3 0 -6 1 -9 2c-81 43 -118 116 -118 186c0 89 58 175 161 198c-14 58 -29 116 -46 173c-106 -122 -212 -244 -212 -404zM406 1042c-99 -47 -162 -148 -162 -257c0 -73 20 -132 38 -191
c79 97 144 199 144 324c0 53 -4 76 -20 124z" fill="currentColor"/>
</g>
<g id="212" class="ly grob KeySignature" data-moment="6.00000000" data-measure="4" data-time="0.40000000">
</g>
<g id="296" class="ly grob LyricText" data-moment="8.00000000" data-measure="5" data-time="0.53333333" data-time-end="0.66666667" data-duration="2">
<text transform="translate(18.4333, 38.0533)" font-family="serif" font-size="2.4694" text-anchor="start" fill="currentColor">
<tspan>Spem</tspan>
</text>
</g>
<g id="295" class="ly grob NoteHead" data-moment="8.00000000" data-measure="5" data-time="0.53333333" data-time-end="0.63333333" data-duration="1.50000000" data-pitch="-5">
<path transform="translate(20.9616, 40.4561) scale(0.0028, -0.0028)" d="M211 111c-49 0 -68 -43 -68 -88c0 -75 57 -134 132 -134c49 0 68 43 68 88c0 75 -57 134 -132 134zM486 0c0 -43 -33 -76 -71 -97c-52 -29 -112 -40 -172 -40s-120 11 -172 40c-38 21 -71 54 -71 97s33 76 71 97c52 29 112 40 172 40s120 -11 172 -40
c38 -21 71 -54 71 -97z" fill="currentColor"/>
</g>
<g id="294" class="ly grob Clef" data-moment="8.00000000" data-measure="5" data-time="0.53333333">
<path transform="translate(17.7905, 40.8096) scale(0.0028, -0.0028)" d="M446 -100c0 22 19 41 41 41s40 -19 40 -41s-18 -41 -40 -41s-41 19 -41 41zM446 100c0 22 19 41 41 41s40 -19 40 -41s-18 -41 -40 -41s-41 19 -41 41zM179 214c141 0 241 -69 241 -201c0 -211 -209 -335 -410 -423c-3 -3 -7 -4 -10 -4c-7 0 -14 7 -14 14c0 3 1 7 4 10
c150 98 305 216 305 392c0 92 -35 184 -116 184c-50 0 -84 -37 -100 -88c4 1 7 1 11 1c44 0 80 -36 80 -80c0 -46 -35 -85 -80 -85c-48 0 -90 38 -90 85c0 105 77 195 179 195z" fill="currentColor"/>
</g>
<g id="292" class="ly grob Dots" data-moment="8.00000000" data-measure="5" data-time="0.53333333">
<path transform="translate(23.4071, 31.2014) scale(0.0040, -0.0040)" d="M0 0c0 32 25 57 57 57s57 -25 57 -57s-25 -57 -57 -57s-57 25 -57 57z" fill="currentColor"/>
</g>
<g id="297" class="ly grob NoteHead" data-moment="8.00000000" data-measure="5" data-time="0.53333333" data-time-end="0.63333333" data-duration="1.50000000" data-pitch="-5">
<path transform="translate(20.9616, 31.2014) scale(0.0040, -0.0040)" d="M215 114c-50 0 -71 -42 -71 -88c0 -79 60 -140 139 -140c50 0 70 42 70 88c0 79 -59 140 -138 140zM497 0c0 -43 -35 -74 -73 -95c-54 -29 -114 -40 -175 -40s-122 11 -176 40c-38 21 -73 52 -73 95s35 74 73 95c54 29 115 40 176 40s121 -11 175 -40
c38 -21 73 -52 73 -95z" fill="currentColor"/>
</g>
<g id="281" class="ly grob Dots" data-moment="8.00000000" data-measure="5" data-time="0.53333333">
<path transform="translate(22.6528, 40.4561) scale(0.0028, -0.0028)" d="M0 0c0 31 25 56 56 56s55 -25 55 -56s-24 -56 -55 -56s-56 25 -56 56z" fill="currentColor"/>
</g>
<g id="257" class="ly grob NoteHead" data-moment="7.00000000" data-measure="4" data-time="0.46666667" data-time-end="0.53333333" data-duration="1" data-pitch="4">
<path transform="translate(14.4341, 42.9309) scale(0.0028, -0.0028)" d="M211 111c-49 0 -68 -43 -68 -88c0 -75 57 -134 132 -134c49 0 68 43 68 88c0 75 -57 134 -132 134zM486 0c0 -43 -33 -76 -71 -97c-52 -29 -112 -40 -172 -40s-120 11 -172 40c-38 21 -71 54 -71 97s33 76 71 97c52 29 112 40 172 40s120 -11 172 -40
c38 -21 71 -54 71 -97z" fill="currentColor"/>
</g>
<g id="256" class="ly grob NoteHead" data-moment="7.00000000" data-measure="4" data-time="0.46666667" data-time-end="0.53333333" data-duration="1" data-pitch="7">
<path transform="translate(14.4341, 42.2238) scale(0.0028, -0.0028)" d="M211 111c-49 0 -68 -43 -68 -88c0 -75 57 -134 132 -134c49 0 68 43 68 88c0 75 -57 134 -132 134zM486 0c0 -43 -33 -76 -71 -97c-52 -29 -112 -40 -172 -40s-120 11 -172 40c-38 21 -71 54 -71 97s33 76 71 97c52 29 112 40 172 40s120 -11 172 -40
c38 -21 71 -54 71 -97z" fill="currentColor"/>
</g>
<g id="264" class="ly grob NoteHead" data-moment="7.50000000" data-measure="4" data-time="0.50000000" data-time-end="0.53333333" data-duration="0.50000000" data-pitch="12">
<path transform="translate(16.5143, 41.1632) scale(0.0028, -0.0028)" d="M312 64c0 24 -20 41 -41 41c-4 0 -8 -1 -12 -2c-30 -9 -77 -38 -113 -62s-83 -54 -103 -78c-7 -8 -10 -17 -10 -27c0 -24 20 -41 41 -41c4 0 8 1 12 2c30 9 77 38 113 62s83 54 103 78c7 8 10 17 10 27zM259 137c48 0 86 -22 86 -74c0 -18 -4 -38 -10 -56
c-12 -38 -30 -73 -63 -95c-53 -36 -113 -49 -186 -49c-48 0 -86 22 -86 74c0 18 4 38 10 56c12 38 31 73 64 95c53 36 112 49 185 49z" fill="currentColor"/>
</g>
<g id="263" class="ly grob Stem" data-moment="7.50000000" data-measure="4" data-time="0.50000000">
<rect transform="translate(17.4508, 41.5167)" x="-0.0397" y="-2.5927" width="0.0795" height="2.0603" ry="0.0317" fill="currentColor"/>
</g>
<g id="249" class="ly grob NoteHead" data-moment="6.50000000" data-measure="4" data-time="0.43333333" data-time-end="0.50000000" data-duration="1" data-pitch="14">
<path transform="translate(12.3539, 40.8096) scale(0.0028, -0.0028)" d="M211 111c-49 0 -68 -43 -68 -88c0 -75 57 -134 132 -134c49 0 68 43 68 88c0 75 -57 134 -132 134zM486 0c0 -43 -33 -76 -71 -97c-52 -29 -112 -40 -172 -40s-120 11 -172 40c-38 21 -71 54 -71 97s33 76 71 97c52 29 112 40 172 40s120 -11 172 -40
c38 -21 71 -54 71 -97z" fill="currentColor"/>
</g>
<g id="41" class="ly grob StaffSymbol" data-moment="0.00000000" data-measure="1" data-time="0">
<line transform="translate(2.2582, 54.7780)" stroke-linejoin="round" stroke-linecap="round" stroke-width="0.0864" stroke="currentColor" x1="0.0432" y1="-0.0000" x2="42.8617" y2="-0.0000"/>
<line transform="translate(2.2582, 53.7780)" stroke-linejoin="round" stroke-linecap="round" stroke-width="0.0864" stroke="currentColor" x1="0.0432" y1="-0.0000" x2="42.8617" y2="-0.0000"/>
<line transform="translate(2.2582, 52.7780)" stroke-linejoin="round" stroke-linecap="round" stroke-width="0.0864" stroke="currentColor" x1="0.0432" y1="-0.0000" x2="42.8617" y2="-0.0000"/>
<line transform="translate(2.2582, 51.7780)" stroke-linejoin="round" stroke-linecap="round" stroke-width="0.0864" stroke="currentColor" x1="0.0432" y1="-0.0000" x2="42.8617" y2="-0.0000"/>
<line transform="translate(2.2582, 50.7780)" stroke-linejoin="round" stroke-linecap="round" stroke-width="0.0864" stroke="currentColor" x1="0.0432" y1="-0.0000" x2="42.8617" y2="-0.0000"/>
</g>
<g id="582" class="ly grob BarLine" data-moment="18.00000000" data-measure="10" data-time="1.20000000">
<rect transform="translate(44.9989, 52.7780)" x="0.0000" y="-2.0000" width="0.1642" height="4.0000" ry="0.0000" fill="currentColor"/>
</g>
<g id="465" class="ly grob BarLine" data-moment="14.00000000" data-measure="8" data-time="0.93333333">
<rect transform="translate(21.4787, 52.7780)" x="0.0000" y="-2.0000" width="0.1642" height="4.0000" ry="0.0000" fill="currentColor"/>
</g>
<g id="573" class="ly grob BarLine" data-moment="18.00000000" data-measure="10" data-time="1.20000000">
<rect transform="translate(44.9989, 62.1295)" x="0.0000" y="-1.4142" width="0.1642" height="2.8284" ry="0.0000" fill="currentColor"/>
</g>
<g id="457" class="ly grob BarLine" data-moment="14.00000000" data-measure="8" data-time="0.93333333">
<rect transform="translate(21.4787, 62.1295)" x="0.0000" y="-1.4142" width="0.1642" height="2.8284" ry="0.0000" fill="currentColor"/>
</g>
<g id="528" class="ly grob BarLine" data-moment="16.00000000" data-measure="9" data-time="1.06666667">
<rect transform="translate(33.8317, 52.7780)" x="0.0000" y="-2.0000" width="0.1642" height="4.0000" ry="0.0000" fill="currentColor"/>
</g>
<g id="519" class="ly grob BarLine" data-moment="16.00000000" data-measure="9" data-time="1.06666667">
<rect transform="translate(33.8317, 62.1295)" x="0.0000" y="-1.4142" width="0.1642" height="2.8284" ry="0.0000" fill="currentColor"/>
</g>
<g id="28" class="ly grob StaffSymbol" data-moment="0.00000000" data-measure="1" data-time="0">
<line transform="translate(2.2582, 63.5437)" stroke-linejoin="round" stroke-linecap="round" stroke-width="0.0611" stroke="currentColor" x1="0.0306" y1="-0.0000" x2="42.8744" y2="-0.0000"/>
<line transform="translate(2.2582, 62.8366)" stroke-linejoin="round" stroke-linecap="round" stroke-width="0.0611" stroke="currentColor" x1="0.0306" y1="-0.0000" x2="42.8744" y2="-0.0000"/>
<line transform="translate(2.2582, 62.1295)" stroke-linejoin="round" stroke-linecap="round" stroke-width="0.0611" stroke="currentColor" x1="0.0306" y1="-0.0000" x2="42.8744" y2="-0.0000"/>
<line transform="translate(2.2582, 61.4224)" stroke-linejoin="round" stroke-linecap="round" stroke-width="0.0611" stroke="currentColor" x1="0.0306" y1="-0.0000" x2="42.8744" y2="-0.0000"/>
<line transform="translate(2.2582, 60.7153)" stroke-linejoin="round" stroke-linecap="round" stroke-width="0.0611" stroke="currentColor" x1="0.0306" y1="-0.0000" x2="42.8744" y2="-0.0000"/>
</g>
<g id="536" class="ly grob NoteHead" data-moment="16.00000000" data-measure="9" data-time="1.06666667" data-time-end="1.13333333" data-duration="1" data-pitch="-10">
<path transform="translate(34.7315, 52.7780) scale(0.0040, -0.0040)" d="M215 114c-50 0 -71 -42 -71 -88c0 -79 60 -140 139 -140c50 0 70 42 70 88c0 79 -59 140 -138 140zM497 0c0 -43 -35 -74 -73 -95c-54 -29 -114 -40 -175 -40s-122 11 -176 40c-38 21 -73 52 -73 95s35 74 73 95c54 29 115 40 176 40s121 -11 175 -40
c38 -21 73 -52 73 -95z" fill="currentColor"/>
</g>
<g id="485" class="ly grob LyricText" data-moment="14.50000000" data-measure="8" data-time="0.96666667" data-time-end="1.10000000" data-duration="2">
<text transform="translate(25.6896, 58.5082)" font-family="serif" font-size="2.4694" text-anchor="start" fill="currentColor">
<tspan>-</tspan>
</text>
</g>
<g id="535" class="ly grob LyricText" data-moment="16.00000000" data-measure="9" data-time="1.06666667" data-time-end="1.20000000" data-duration="2">
<text transform="translate(34.9400, 58.5082)" font-family="serif" font-size="2.4694" text-anchor="start" fill="currentColor">
<tspan>i,</tspan>
</text>
</g>
<g id="534" class="ly grob NoteHead" data-moment="16.00000000" data-measure="9" data-time="1.06666667" data-time-end="1.13333333" data-duration="1" data-pitch="-10">
<path transform="translate(34.7315, 62.1295) scale(0.0028, -0.0028)" d="M211 111c-49 0 -68 -43 -68 -88c0 -75 57 -134 132 -134c49 0 68 43 68 88c0 75 -57 134 -132 134zM486 0c0 -43 -33 -76 -71 -97c-52 -29 -112 -40 -172 -40s-120 11 -172 40c-38 21 -71 54 -71 97s33 76 71 97c52 29 112 40 172 40s120 -11 172 -40
c38 -21 71 -54 71 -97z" fill="currentColor"/>
</g>
<g id="499" class="ly grob LyricText" data-moment="15.00000000" data-measure="8" data-time="1" data-time-end="1.13333333" data-duration="2">
<text transform="translate(27.6427, 58.5082)" font-family="serif" font-size="2.4694" text-anchor="start" fill="currentColor">
<tspan>bu</tspan>
</text>
</g>
<g id="484" class="ly grob NoteHead" data-moment="14.50000000" data-measure="8" data-time="0.96666667" data-time-end="1.00000000" data-duration="0.50000000" data-pitch="-10">
<path transform="translate(25.4236, 62.1295) scale(0.0028, -0.0028)" d="M312 64c0 24 -20 41 -41 41c-4 0 -8 -1 -12 -2c-30 -9 -77 -38 -113 -62s-83 -54 -103 -78c-7 -8 -10 -17 -10 -27c0 -24 20 -41 41 -41c4 0 8 1 12 2c30 9 77 38 113 62s83 54 103 78c7 8 10 17 10 27zM259 137c48 0 86 -22 86 -74c0 -18 -4 -38 -10 -56
c-12 -38 -30 -73 -63 -95c-53 -36 -113 -49 -186 -49c-48 0 -86 22 -86 74c0 18 4 38 10 56c12 38 31 73 64 95c53 36 112 49 185 49z" fill="currentColor"/>
</g>
<g id="483" class="ly grob Stem" data-moment="14.50000000" data-measure="8" data-time="0.96666667">
<rect transform="translate(25.4798, 52.7780)" x="-0.0562" y="-0.7316" width="0.1124" height="3.2316" ry="0.0317" fill="currentColor"/>
</g>
<g id="478" class="ly grob Stem" data-moment="14.50000000" data-measure="8" data-time="0.96666667">
<rect transform="translate(25.4633, 62.1295)" x="-0.0397" y="0.1789" width="0.0795" height="2.1782" ry="0.0317" fill="currentColor"/>
</g>
<g id="500" class="ly grob NoteHead" data-moment="15.00000000" data-measure="8" data-time="1" data-time-end="1.06666667" data-duration="1" data-pitch="-8">
<path transform="translate(28.2336, 52.2780) scale(0.0040, -0.0040)" d="M215 114c-50 0 -71 -42 -71 -88c0 -79 60 -140 139 -140c50 0 70 42 70 88c0 79 -59 140 -138 140zM497 0c0 -43 -35 -74 -73 -95c-54 -29 -114 -40 -175 -40s-122 11 -176 40c-38 21 -73 52 -73 95s35 74 73 95c54 29 115 40 176 40s121 -11 175 -40
c38 -21 73 -52 73 -95z" fill="currentColor"/>
</g>
<g id="506" class="ly grob Stem" data-moment="15.50000000" data-measure="8" data-time="1.03333333">
<rect transform="translate(31.8532, 62.1295)" x="-0.0397" y="-1.4142" width="0.0795" height="2.2960" ry="0.0317" fill="currentColor"/>
</g>
<g id="498" class="ly grob NoteHead" data-moment="15.00000000" data-measure="8" data-time="1" data-time-end="1.03333333" data-duration="0.50000000" data-pitch="-15">
<path transform="translate(28.2336, 63.1901) scale(0.0028, -0.0028)" d="M312 64c0 24 -20 41 -41 41c-4 0 -8 -1 -12 -2c-30 -9 -77 -38 -113 -62s-83 -54 -103 -78c-7 -8 -10 -17 -10 -27c0 -24 20 -41 41 -41c4 0 8 1 12 2c30 9 77 38 113 62s83 54 103 78c7 8 10 17 10 27zM259 137c48 0 86 -22 86 -74c0 -18 -4 -38 -10 -56
c-12 -38 -30 -73 -63 -95c-53 -36 -113 -49 -186 -49c-48 0 -86 22 -86 74c0 18 4 38 10 56c12 38 31 73 64 95c53 36 112 49 185 49z" fill="currentColor"/>
</g>
<g id="492" class="ly grob Stem" data-moment="15.00000000" data-measure="8" data-time="1">
<rect transform="translate(29.1701, 62.1295)" x="-0.0397" y="-1.4142" width="0.0795" height="2.2960" ry="0.0317" fill="currentColor"/>
</g>
<g id="507" class="ly grob NoteHead" data-moment="15.50000000" data-measure="8" data-time="1.03333333" data-time-end="1.06666667" data-duration="0.50000000" data-pitch="-15">
<path transform="translate(30.9167, 63.1901) scale(0.0028, -0.0028)" d="M312 64c0 24 -20 41 -41 41c-4 0 -8 -1 -12 -2c-30 -9 -77 -38 -113 -62s-83 -54 -103 -78c-7 -8 -10 -17 -10 -27c0 -24 20 -41 41 -41c4 0 8 1 12 2c30 9 77 38 113 62s83 54 103 78c7 8 10 17 10 27zM259 137c48 0 86 -22 86 -74c0 -18 -4 -38 -10 -56
c-12 -38 -30 -73 -63 -95c-53 -36 -113 -49 -186 -49c-48 0 -86 22 -86 74c0 18 4 38 10 56c12 38 31 73 64 95c53 36 112 49 185 49z" fill="currentColor"/>
</g>
<g id="432" class="ly grob Tie" data-moment="13.50000000" data-measure="7" data-time="0.90000000">
<path transform="translate(18.6329, 62.1295)" stroke-width="0.0489" stroke-linejoin="round" stroke-linecap="round" stroke="currentColor" fill="currentColor" d="M0.6881 1.0607C1.4110 1.7798 3.4749 1.7798 4.1979 1.0607L4.1979 1.0607C3.4749 1.7065 1.4110 1.7065 0.6881 1.0607z"/>
</g>
<g id="438" class="ly grob Tie" data-moment="13.50000000" data-measure="7" data-time="0.90000000">
<path transform="translate(18.6329, 52.7780)" stroke-width="0.0692" stroke-linejoin="round" stroke-linecap="round" stroke="currentColor" fill="currentColor" d="M1.5720 -2.0000C2.0848 -2.5874 3.1970 -2.5874 3.7098 -2.0000L3.7098 -2.0000C3.1970 -2.4836 2.0848 -2.4836 1.5720 -2.0000z"/>
</g>
<g id="552" class="ly grob NoteHead" data-moment="17.00000000" data-measure="9" data-time="1.13333333" data-time-end="1.16666667" data-duration="0.50000000" data-pitch="-3">
<path transform="translate(38.8274, 50.7780) scale(0.0040, -0.0040)" d="M316 67c0 25 -20 42 -42 42c-4 0 -9 -1 -13 -2c-31 -9 -79 -41 -117 -65s-86 -55 -107 -80c-7 -8 -10 -19 -10 -29c0 -25 20 -42 42 -42c4 0 9 1 13 2c31 9 79 41 117 65s86 55 107 80c7 8 10 19 10 29zM265 135c44 0 78 -21 78 -68c0 -19 -5 -39 -11 -57
c-12 -37 -33 -71 -65 -93c-53 -36 -114 -52 -189 -52c-44 0 -78 21 -78 68c0 19 5 39 11 57c12 37 33 71 65 93c53 36 114 52 189 52z" fill="currentColor"/>
</g>
<g id="551" class="ly grob LyricText" data-moment="17.00000000" data-measure="9" data-time="1.13333333" data-time-end="1.26666667" data-duration="2">
<text transform="translate(37.9824, 58.5082)" font-family="serif" font-size="2.4694" text-anchor="start" fill="currentColor">
<tspan>ha</tspan>
</text>
</g>
<g id="549" class="ly grob NoteHead" data-moment="17.00000000" data-measure="9" data-time="1.13333333" data-time-end="1.20000000" data-duration="1" data-pitch="-10">
<path transform="translate(38.8274, 62.1295) scale(0.0028, -0.0028)" d="M211 111c-49 0 -68 -43 -68 -88c0 -75 57 -134 132 -134c49 0 68 43 68 88c0 75 -57 134 -132 134zM486 0c0 -43 -33 -76 -71 -97c-52 -29 -112 -40 -172 -40s-120 11 -172 40c-38 21 -71 54 -71 97s33 76 71 97c52 29 112 40 172 40s120 -11 172 -40
c38 -21 71 -54 71 -97z" fill="currentColor"/>
</g>
<g id="548" class="ly grob Stem" data-moment="17.00000000" data-measure="9" data-time="1.13333333">
<rect transform="translate(38.8836, 52.7780)" x="-0.0562" y="-1.7316" width="0.1124" height="3.2316" ry="0.0317" fill="currentColor"/>
</g>
<g id="561" class="ly grob NoteHead" data-moment="17.50000000" data-measure="9" data-time="1.16666667" data-time-end="1.20000000" data-duration="0.50000000" data-pitch="-10">
<path transform="translate(42.0437, 52.7780) scale(0.0040, -0.0040)" d="M316 67c0 25 -20 42 -42 42c-4 0 -9 -1 -13 -2c-31 -9 -79 -41 -117 -65s-86 -55 -107 -80c-7 -8 -10 -19 -10 -29c0 -25 20 -42 42 -42c4 0 9 1 13 2c31 9 79 41 117 65s86 55 107 80c7 8 10 19 10 29zM265 135c44 0 78 -21 78 -68c0 -19 -5 -39 -11 -57
c-12 -37 -33 -71 -65 -93c-53 -36 -114 -52 -189 -52c-44 0 -78 21 -78 68c0 19 5 39 11 57c12 37 33 71 65 93c53 36 114 52 189 52z" fill="currentColor"/>
</g>
<g id="560" class="ly grob LyricText" data-moment="17.50000000" data-measure="9" data-time="1.16666667" data-time-end="1.30000000" data-duration="2">
<text transform="translate(41.1444, 58.5082)" font-family="serif" font-size="2.4694" text-anchor="start" fill="currentColor">
<tspan>bu</tspan>
</text>
</g>
<g id="558" class="ly grob Stem" data-moment="17.50000000" data-measure="9" data-time="1.16666667">
<rect transform="translate(42.0998, 52.7780)" x="-0.0562" y="0.2684" width="0.1124" height="3.0649" ry="0.0317" fill="currentColor"/>
</g>
<g id="406" class="ly grob NoteHead" data-moment="12.00000000" data-measure="7" data-time="0.80000000" data-time-end="0.83333333" data-duration="0.50000000" data-pitch="-7">
<path transform="translate(8.0582, 51.7780) scale(0.0040, -0.0040)" d="M316 67c0 25 -20 42 -42 42c-4 0 -9 -1 -13 -2c-31 -9 -79 -41 -117 -65s-86 -55 -107 -80c-7 -8 -10 -19 -10 -29c0 -25 20 -42 42 -42c4 0 9 1 13 2c31 9 79 41 117 65s86 55 107 80c7 8 10 19 10 29zM265 135c44 0 78 -21 78 -68c0 -19 -5 -39 -11 -57
c-12 -37 -33 -71 -65 -93c-53 -36 -114 -52 -189 -52c-44 0 -78 21 -78 68c0 19 5 39 11 57c12 37 33 71 65 93c53 36 114 52 189 52z" fill="currentColor"/>
</g>
<g id="405" class="ly grob LyricText" data-moment="12.00000000" data-measure="7" data-time="0.80000000" data-time-end="0.93333333" data-duration="2">
<text transform="translate(5.3163, 58.5082)" font-family="serif" font-size="2.4694" text-anchor="start" fill="currentColor">
<tspan>auam</tspan>
</text>
</g>
<g id="404" class="ly grob NoteHead" data-moment="12.00000000" data-measure="7" data-time="0.80000000" data-time-end="0.83333333" data-duration="0.50000000" data-pitch="-10">
<path transform="translate(8.0582, 62.1295) scale(0.0028, -0.0028)" d="M312 64c0 24 -20 41 -41 41c-4 0 -8 -1 -12 -2c-30 -9 -77 -38 -113 -62s-83 -54 -103 -78c-7 -8 -10 -17 -10 -27c0 -24 20 -41 41 -41c4 0 8 1 12 2c30 9 77 38 113 62s83 54 103 78c7 8 10 17 10 27zM259 137c48 0 86 -22 86 -74c0 -18 -4 -38 -10 -56
c-12 -38 -30 -73 -63 -95c-53 -36 -113 -49 -186 -49c-48 0 -86 22 -86 74c0 18 4 38 10 56c12 38 31 73 64 95c53 36 112 49 185 49z" fill="currentColor"/>
</g>
<g id="402" class="ly grob Stem" data-moment="12.00000000" data-measure="7" data-time="0.80000000">
<rect transform="translate(8.1143, 52.7780)" x="-0.0562" y="-0.7316" width="0.1124" height="3.2316" ry="0.0317" fill="currentColor"/>
</g>
<g id="393" class="ly grob Stem" data-moment="12.00000000" data-measure="7" data-time="0.80000000">
<rect transform="translate(8.0979, 62.1295)" x="-0.0397" y="0.1789" width="0.0795" height="2.1782" ry="0.0317" fill="currentColor"/>
</g>
<g id="420" class="ly grob NoteHead" data-moment="12.50000000" data-measure="7" data-time="0.83333333" data-time-end="0.90000000" data-duration="1" data-pitch="-3">
<path transform="translate(13.1587, 50.7780) scale(0.0040, -0.0040)" d="M215 114c-50 0 -71 -42 -71 -88c0 -79 60 -140 139 -140c50 0 70 42 70 88c0 79 -59 140 -138 140zM497 0c0 -43 -35 -74 -73 -95c-54 -29 -114 -40 -175 -40s-122 11 -176 40c-38 21 -73 52 -73 95s35 74 73 95c54 29 115 40 176 40s121 -11 175 -40
c38 -21 73 -52 73 -95z" fill="currentColor"/>
</g>
<g id="419" class="ly grob LyricText" data-moment="12.50000000" data-measure="7" data-time="0.83333333" data-time-end="0.96666667" data-duration="2">
<text transform="translate(12.6220, 58.5082)" font-family="serif" font-size="2.4694" text-anchor="start" fill="currentColor">
<tspan>ha</tspan>
</text>
</g>
<g id="418" class="ly grob NoteHead" data-moment="12.50000000" data-measure="7" data-time="0.83333333" data-time-end="0.86666667" data-duration="0.50000000" data-pitch="-10">
<path transform="translate(13.1587, 62.1295) scale(0.0028, -0.0028)" d="M312 64c0 24 -20 41 -41 41c-4 0 -8 -1 -12 -2c-30 -9 -77 -38 -113 -62s-83 -54 -103 -78c-7 -8 -10 -17 -10 -27c0 -24 20 -41 41 -41c4 0 8 1 12 2c30 9 77 38 113 62s83 54 103 78c7 8 10 17 10 27zM259 137c48 0 86 -22 86 -74c0 -18 -4 -38 -10 -56
c-12 -38 -30 -73 -63 -95c-53 -36 -113 -49 -186 -49c-48 0 -86 22 -86 74c0 18 4 38 10 56c12 38 31 73 64 95c53 36 112 49 185 49z" fill="currentColor"/>
</g>
<g id="412" class="ly grob Stem" data-moment="12.50000000" data-measure="7" data-time="0.83333333">
<rect transform="translate(13.1984, 62.1295)" x="-0.0397" y="0.1789" width="0.0795" height="2.1782" ry="0.0317" fill="currentColor"/>
</g>
<g id="486" class="ly grob NoteHead" data-moment="14.50000000" data-measure="8" data-time="0.96666667" data-time-end="1.00000000" data-duration="0.50000000" data-pitch="-7">
<path transform="translate(25.4236, 51.7780) scale(0.0040, -0.0040)" d="M316 67c0 25 -20 42 -42 42c-4 0 -9 -1 -13 -2c-31 -9 -79 -41 -117 -65s-86 -55 -107 -80c-7 -8 -10 -19 -10 -29c0 -25 20 -42 42 -42c4 0 9 1 13 2c31 9 79 41 117 65s86 55 107 80c7 8 10 19 10 29zM265 135c44 0 78 -21 78 -68c0 -19 -5 -39 -11 -57
c-12 -37 -33 -71 -65 -93c-53 -36 -114 -52 -189 -52c-44 0 -78 21 -78 68c0 19 5 39 11 57c12 37 33 71 65 93c53 36 114 52 189 52z" fill="currentColor"/>
</g>
<g id="26" class="ly grob SystemStartBar" data-moment="0.00000000" data-measure="1" data-time="0">
<rect transform="translate(2.2199, 57.1545)" x="0.0000" y="-6.4197" width="0.1383" height="12.8395" ry="0.0432" fill="currentColor"/>
</g>
<g id="540" class="ly grob Tie" data-moment="17.00000000" data-measure="9" data-time="1.13333333">
<path transform="translate(38.8274, 62.1295)" stroke-width="0.0489" stroke-linejoin="round" stroke-linecap="round" stroke="currentColor" fill="currentColor" d="M1.5758 -0.3536C2.4055 -1.1291 5.1418 -1.1291 5.9715 -0.3536L5.9715 -0.3536C5.1418 -1.0557 2.4055 -1.0557 1.5758 -0.3536z"/>
</g>
<g id="559" class="ly grob LyricHyphen" data-moment="17.50000000" data-measure="9" data-time="1.16666667">
<rect transform="translate(44.3269, 58.5082)" x="0.0000" y="-0.5324" width="0.6600" height="0.1124" ry="0.0346" fill="currentColor"/>
</g>
<g id="403" class="ly grob BarNumber" data-moment="12.00000000" data-measure="7" data-time="0.80000000">
<text transform="translate(1.1471, 49.7077)" font-family="serif" font-size="1.7461" text-anchor="start" fill="currentColor">
<tspan>7</tspan>
</text>
</g>
<g id="396" class="ly grob Clef" data-moment="12.00000000" data-measure="7" data-time="0.80000000">
<path transform="translate(3.0582, 51.7780) scale(0.0040, -0.0040)" d="M556 -125c0 29 23 52 52 52s52 -23 52 -52s-23 -52 -52 -52s-52 23 -52 52zM556 125c0 29 23 52 52 52s52 -23 52 -52s-23 -52 -52 -52s-52 23 -52 52zM233 261c171 0 292 -86 292 -248c0 -263 -264 -415 -517 -521c-2 -2 -5 -3 -8 -3c-6 0 -11 5 -11 11c0 3 1 6 3 8
c203 118 415 265 415 494c0 121 -64 237 -174 237c-79 0 -138 -57 -164 -133c14 8 28 13 43 13c55 0 100 -45 100 -100c0 -58 -44 -107 -100 -107c-60 0 -112 48 -112 107c0 132 103 242 233 242z" fill="currentColor"/>
</g>
<g id="395" class="ly grob KeySignature" data-moment="12.00000000" data-measure="7" data-time="0.80000000">
</g>
<g id="387" class="ly grob Clef" data-moment="12.00000000" data-measure="7" data-time="0.80000000">
<path transform="translate(3.0582, 61.4224) scale(0.0028, -0.0028)" d="M558 -125c0 28 22 51 50 51s51 -23 51 -51s-23 -51 -51 -51s-50 23 -50 51zM558 125c0 28 22 51 50 51s51 -23 51 -51s-23 -51 -51 -51s-50 23 -50 51zM231 264c172 0 294 -88 294 -251c0 -263 -262 -416 -515 -523c-3 -3 -7 -4 -10 -4c-7 0 -14 7 -14 14c0 3 1 7 4 10
c201 118 410 265 410 492c0 119 -61 234 -169 234c-72 0 -124 -53 -148 -123c10 4 19 6 29 6c55 0 100 -45 100 -100c0 -58 -44 -106 -100 -106c-60 0 -112 47 -112 106c0 133 101 245 231 245z" fill="currentColor"/>
</g>
<g id="386" class="ly grob KeySignature" data-moment="12.00000000" data-measure="7" data-time="0.80000000">
</g>
<g id="472" class="ly grob NoteHead" data-moment="14.00000000" data-measure="8" data-time="0.93333333" data-time-end="0.96666667" data-duration="0.50000000" data-pitch="-5">
<path transform="translate(22.5426, 51.2780) scale(0.0040, -0.0040)" d="M316 67c0 25 -20 42 -42 42c-4 0 -9 -1 -13 -2c-31 -9 -79 -41 -117 -65s-86 -55 -107 -80c-7 -8 -10 -19 -10 -29c0 -25 20 -42 42 -42c4 0 9 1 13 2c31 9 79 41 117 65s86 55 107 80c7 8 10 19 10 29zM265 135c44 0 78 -21 78 -68c0 -19 -5 -39 -11 -57
c-12 -37 -33 -71 -65 -93c-53 -36 -114 -52 -189 -52c-44 0 -78 21 -78 68c0 19 5 39 11 57c12 37 33 71 65 93c53 36 114 52 189 52z" fill="currentColor"/>
</g>
<g id="471" class="ly grob NoteHead" data-moment="14.00000000" data-measure="8" data-time="0.93333333" data-time-end="0.96666667" data-duration="0.50000000" data-pitch="-12">
<path transform="translate(22.5426, 62.4830) scale(0.0028, -0.0028)" d="M312 64c0 24 -20 41 -41 41c-4 0 -8 -1 -12 -2c-30 -9 -77 -38 -113 -62s-83 -54 -103 -78c-7 -8 -10 -17 -10 -27c0 -24 20 -41 41 -41c4 0 8 1 12 2c30 9 77 38 113 62s83 54 103 78c7 8 10 17 10 27zM259 137c48 0 86 -22 86 -74c0 -18 -4 -38 -10 -56
c-12 -38 -30 -73 -63 -95c-53 -36 -113 -49 -186 -49c-48 0 -86 22 -86 74c0 18 4 38 10 56c12 38 31 73 64 95c53 36 112 49 185 49z" fill="currentColor"/>
</g>
<g id="469" class="ly grob Stem" data-moment="14.00000000" data-measure="8" data-time="0.93333333">
<rect transform="translate(22.5988, 52.7780)" x="-0.0562" y="-1.2316" width="0.1124" height="3.2316" ry="0.0317" fill="currentColor"/>
</g>
<g id="461" class="ly grob Stem" data-moment="14.00000000" data-measure="8" data-time="0.93333333">
<rect transform="translate(23.4791, 62.1295)" x="-0.0397" y="-2.1213" width="0.0795" height="2.2960" ry="0.0317" fill="currentColor"/>
</g>
<g id="445" class="ly grob NoteHead" data-moment="13.50000000" data-measure="7" data-time="0.90000000" data-time-end="0.93333333" data-duration="0.50000000" data-pitch="-5">
<path transform="translate(18.6329, 51.2780) scale(0.0040, -0.0040)" d="M316 67c0 25 -20 42 -42 42c-4 0 -9 -1 -13 -2c-31 -9 -79 -41 -117 -65s-86 -55 -107 -80c-7 -8 -10 -19 -10 -29c0 -25 20 -42 42 -42c4 0 9 1 13 2c31 9 79 41 117 65s86 55 107 80c7 8 10 19 10 29zM265 135c44 0 78 -21 78 -68c0 -19 -5 -39 -11 -57
c-12 -37 -33 -71 -65 -93c-53 -36 -114 -52 -189 -52c-44 0 -78 21 -78 68c0 19 5 39 11 57c12 37 33 71 65 93c53 36 114 52 189 52z" fill="currentColor"/>
</g>
<g id="444" class="ly grob LyricText" data-moment="13.50000000" data-measure="7" data-time="0.90000000" data-time-end="1.03333333" data-duration="2">
<text transform="translate(18.6329, 58.5082)" font-family="serif" font-size="2.4694" text-anchor="start" fill="currentColor">
<tspan>-</tspan>
</text>
</g>
<g id="443" class="ly grob NoteHead" data-moment="13.50000000" data-measure="7" data-time="0.90000000" data-time-end="0.93333333" data-duration="0.50000000" data-pitch="-12">
<path transform="translate(18.6329, 62.4830) scale(0.0028, -0.0028)" d="M312 64c0 24 -20 41 -41 41c-4 0 -8 -1 -12 -2c-30 -9 -77 -38 -113 -62s-83 -54 -103 -78c-7 -8 -10 -17 -10 -27c0 -24 20 -41 41 -41c4 0 8 1 12 2c30 9 77 38 113 62s83 54 103 78c7 8 10 17 10 27zM259 137c48 0 86 -22 86 -74c0 -18 -4 -38 -10 -56
c-12 -38 -30 -73 -63 -95c-53 -36 -113 -49 -186 -49c-48 0 -86 22 -86 74c0 18 4 38 10 56c12 38 31 73 64 95c53 36 112 49 185 49z" fill="currentColor"/>
</g>
<g id="442" class="ly grob Stem" data-moment="13.50000000" data-measure="7" data-time="0.90000000">
<rect transform="translate(18.6890, 52.7780)" x="-0.0562" y="-1.2316" width="0.1124" height="3.2316" ry="0.0317" fill="currentColor"/>
</g>
<g id="426" class="ly grob Stem" data-moment="13.00000000" data-measure="7" data-time="0.86666667">
<rect transform="translate(16.6363, 62.1295)" x="-0.0397" y="-1.4142" width="0.0795" height="2.2960" ry="0.0317" fill="currentColor"/>
</g>
<g id="436" class="ly grob Stem" data-moment="13.50000000" data-measure="7" data-time="0.90000000">
<rect transform="translate(19.5693, 62.1295)" x="-0.0397" y="-2.1213" width="0.0795" height="2.2960" ry="0.0317" fill="currentColor"/>
</g>
<g id="427" class="ly grob NoteHead" data-moment="13.00000000" data-measure="7" data-time="0.86666667" data-time-end="0.90000000" data-duration="0.50000000" data-pitch="-15">
<path transform="translate(15.6998, 63.1901) scale(0.0028, -0.0028)" d="M312 64c0 24 -20 41 -41 41c-4 0 -8 -1 -12 -2c-30 -9 -77 -38 -113 -62s-83 -54 -103 -78c-7 -8 -10 -17 -10 -27c0 -24 20 -41 41 -41c4 0 8 1 12 2c30 9 77 38 113 62s83 54 103 78c7 8 10 17 10 27zM259 137c48 0 86 -22 86 -74c0 -18 -4 -38 -10 -56
c-12 -38 -30 -73 -63 -95c-53 -36 -113 -49 -186 -49c-48 0 -86 22 -86 74c0 18 4 38 10 56c12 38 31 73 64 95c53 36 112 49 185 49z" fill="currentColor"/>
</g>
</svg>
